<svg width="24" height="24" viewBox="0 0 24 24" fill="none" xmlns="http://www.w3.org/2000/svg">
<path d="M11.9985 11.4245C15.3168 11.4245 18.0765 9.1305 18.0765 6.27496C18.0765 3.41943 15.3168 1.12539 11.9985 1.12539C8.68025 1.12539 5.92056 3.41943 5.92056 6.27496C5.92056 9.1305 8.68025 11.4245 11.9985 11.4245ZM11.9985 2.53641C14.4765 2.53641 16.4591 4.24203 16.4591 6.27496C16.4591 8.3079 14.4765 10.0135 11.9985 10.0135C9.52055 10.0135 7.53788 8.3079 7.53788 6.27496C7.53788 4.24203 9.52055 2.53641 11.9985 2.53641Z" fill="#F3943D" stroke="#F3943D" stroke-width="0.3"/>
<path d="M1.65769 23.4258H22.3397C22.7598 23.4258 23.1483 23.1316 23.1483 22.7203V19.665C23.1483 15.5873 19.203 12.2934 14.4357 12.2934H9.56163C4.79431 12.2934 0.849023 15.5873 0.849023 19.665V22.7203C0.849023 23.1637 1.24285 23.4258 1.65769 23.4258ZM2.46635 19.6927C2.46635 16.4377 5.63461 13.7322 9.56163 13.7322H14.4357C18.3627 13.7322 21.531 16.4377 21.531 19.6927V22.0425H2.46635V19.6927Z" fill="#F3943D" stroke="#F3943D" stroke-width="0.3"/>
</svg>
