<svg width="32" height="32" viewBox="0 0 32 32" fill="none" xmlns="http://www.w3.org/2000/svg">
    <circle cx="16" cy="16" r="15.5" fill="#fff" stroke="#E8E8E8"/>
    <path d="M8.938 22.594c0 .776.63 1.406 1.406 1.406h10.312c.777 0 1.407-.63 1.407-1.406v-7.969H8.938v7.969zm9.374-5.742c0-.194.159-.352.352-.352h1.172c.193 0 .352.158.352.352v1.171a.353.353 0 0 1-.352.352h-1.172a.353.353 0 0 1-.352-.352v-1.171zm0 3.75c0-.194.159-.352.352-.352h1.172c.193 0 .352.158.352.352v1.171a.353.353 0 0 1-.352.352h-1.172a.353.353 0 0 1-.352-.352v-1.171zm-3.75-3.75c0-.194.159-.352.352-.352h1.172c.193 0 .352.158.352.352v1.171a.353.353 0 0 1-.352.352h-1.172a.353.353 0 0 1-.351-.352v-1.171zm0 3.75c0-.194.159-.352.352-.352h1.172c.193 0 .352.158.352.352v1.171a.353.353 0 0 1-.352.352h-1.172a.353.353 0 0 1-.351-.352v-1.171zm-3.75-3.75c0-.194.159-.352.352-.352h1.172c.193 0 .351.158.351.352v1.171a.353.353 0 0 1-.351.352h-1.172a.353.353 0 0 1-.351-.352v-1.171zm0 3.75c0-.194.159-.352.352-.352h1.172c.193 0 .351.158.351.352v1.171a.353.353 0 0 1-.351.352h-1.172a.353.353 0 0 1-.351-.352v-1.171zm9.844-9.727H19.25V9.469A.47.47 0 0 0 18.781 9h-.937a.47.47 0 0 0-.469.469v1.406h-3.75V9.469A.47.47 0 0 0 13.156 9h-.937a.47.47 0 0 0-.469.469v1.406h-1.406c-.777 0-1.406.63-1.406 1.406v1.406h13.124v-1.406c0-.776-.63-1.406-1.406-1.406z" fill="#F7941E"/>
</svg>
