<svg width="31" height="31" viewBox="0 0 31 31" fill="none" xmlns="http://www.w3.org/2000/svg">
    <g clip-path="url(#82xn7e1ija)">
        <path d="M30.576 10.584 28.18 8.186c-.57-.57-1.49-.57-2.053 0l-14.5 14.5-6.746-6.75c-.569-.57-1.49-.57-2.052 0L.424 18.34c-.57.569-.57 1.49 0 2.058l10.172 10.178c.569.57 1.49.57 2.052 0L30.57 12.642a1.46 1.46 0 0 0 .006-2.058zm-19.635 6.418a.961.961 0 0 0 1.368 0L24.903 4.396a.972.972 0 0 0 0-1.369L22.166.285a.961.961 0 0 0-1.368 0l-9.173 9.172-3.354-3.36a.961.961 0 0 0-1.369 0L4.16 8.84a.972.972 0 0 0 0 1.368l6.78 6.793z" fill="#F7941E"/>
    </g>
    <defs>
        <clipPath id="82xn7e1ija">
            <path fill="#fff" d="M0 0h31v31H0z"/>
        </clipPath>
    </defs>
</svg>
