<svg width="24" height="24" viewBox="0 0 24 24" fill="none" xmlns="http://www.w3.org/2000/svg">
    <circle cx="12" cy="12" r="12" fill="#E8E8E8"/>
    <path d="m13.689 11.831 2.345-2.747a.97.97 0 0 0 0-1.22l-.521-.611a.664.664 0 0 0-1.043 0L12.125 10 9.78 7.253a.664.664 0 0 0-1.043 0l-.521.61a.971.971 0 0 0 0 1.221l2.345 2.747-2.345 2.747a.971.971 0 0 0 0 1.22l.521.611a.664.664 0 0 0 1.043 0l2.345-2.746 2.345 2.746a.664.664 0 0 0 1.043 0l.521-.61a.971.971 0 0 0 0-1.221L13.69 11.83z" fill="#E77925"/>
</svg>
