<svg width="32" height="32" viewBox="0 0 32 32" fill="none" xmlns="http://www.w3.org/2000/svg">
<circle cx="16" cy="16" r="15.5" fill="white" stroke="#E8E8E8"/>
<path d="M16 9C11.5819 9 8 11.91 8 15.5C8 17.0487 8.66906 18.4688 9.78125 19.5856C9.38937 21.1578 8.08438 22.5625 8.06875 22.5781C8.03517 22.6136 8.01272 22.6581 8.00416 22.7062C7.99561 22.7543 8.00132 22.8038 8.0206 22.8487C8.03988 22.8936 8.07187 22.9318 8.11264 22.9587C8.15341 22.9856 8.20116 22.9999 8.25 23C10.3206 23 11.875 22.0078 12.6438 21.3944C13.7169 21.7966 14.8539 22.0018 16 22C20.4184 22 24 19.09 24 15.5C24 11.91 20.4184 9 16 9ZM19 16.25C19 16.3163 18.9737 16.3799 18.9268 16.4268C18.8799 16.4737 18.8163 16.5 18.75 16.5H17V18.25C17 18.3163 16.9737 18.3799 16.9268 18.4268C16.8799 18.4737 16.8163 18.5 16.75 18.5H15.25C15.1837 18.5 15.1201 18.4737 15.0732 18.4268C15.0263 18.3799 15 18.3163 15 18.25V16.5H13.25C13.1837 16.5 13.1201 16.4737 13.0732 16.4268C13.0263 16.3799 13 16.3163 13 16.25V14.75C13 14.6837 13.0263 14.6201 13.0732 14.5732C13.1201 14.5263 13.1837 14.5 13.25 14.5H15V12.75C15 12.6837 15.0263 12.6201 15.0732 12.5732C15.1201 12.5263 15.1837 12.5 15.25 12.5H16.75C16.8163 12.5 16.8799 12.5263 16.9268 12.5732C16.9737 12.6201 17 12.6837 17 12.75V14.5H18.75C18.8163 14.5 18.8799 14.5263 18.9268 14.5732C18.9737 14.6201 19 14.6837 19 14.75V16.25Z" fill="#F7941E"/>
<circle cx="16.5" cy="15.5" r="4.5" fill="#F7941E"/>
<path d="M19.9517 15.7974C19.1985 14.3278 17.7074 13.3335 16 13.3335C14.2926 13.3335 12.8011 14.3285 12.0483 15.7975C12.0166 15.8604 12 15.9298 12 16.0002C12 16.0707 12.0166 16.1401 12.0483 16.2029C12.8015 17.6725 14.2926 18.6668 16 18.6668C17.7074 18.6668 19.1989 17.6718 19.9517 16.2028C19.9834 16.14 20 16.0705 20 16.0001C20 15.9297 19.9834 15.8602 19.9517 15.7974ZM16 18.0002C15.6044 18.0002 15.2178 17.8829 14.8889 17.6631C14.56 17.4433 14.3036 17.131 14.1522 16.7655C14.0009 16.4001 13.9613 15.9979 14.0384 15.61C14.1156 15.222 14.3061 14.8657 14.5858 14.5859C14.8655 14.3062 15.2218 14.1158 15.6098 14.0386C15.9978 13.9614 16.3999 14.001 16.7654 14.1524C17.1308 14.3038 17.4432 14.5601 17.6629 14.889C17.8827 15.2179 18 15.6046 18 16.0002C18.0001 16.2628 17.9485 16.523 17.848 16.7657C17.7475 17.0084 17.6002 17.2289 17.4145 17.4147C17.2287 17.6004 17.0082 17.7477 16.7655 17.8482C16.5228 17.9486 16.2627 18.0003 16 18.0002ZM16 14.6668C15.881 14.6685 15.7627 14.6862 15.6485 14.7195C15.7427 14.8475 15.7879 15.005 15.7759 15.1635C15.7639 15.322 15.6955 15.4709 15.5831 15.5833C15.4707 15.6957 15.3218 15.7641 15.1633 15.776C15.0048 15.788 14.8473 15.7428 14.7193 15.6486C14.6464 15.9172 14.6596 16.2018 14.7569 16.4625C14.8543 16.7232 15.0309 16.9468 15.262 17.1018C15.4931 17.2568 15.767 17.3355 16.0451 17.3267C16.3233 17.3179 16.5916 17.2221 16.8125 17.0528C17.0333 16.8835 17.1955 16.6492 17.2762 16.3829C17.3569 16.1166 17.3521 15.8317 17.2624 15.5683C17.1727 15.3049 17.0027 15.0762 16.7762 14.9145C16.5497 14.7528 16.2783 14.6662 16 14.6668Z" fill="white"/>
</svg>
