<svg width="56" height="50" viewBox="0 0 56 50" fill="none" xmlns="http://www.w3.org/2000/svg">
    <path d="M28 .5C12.537.5 0 10.685 0 23.25c0 5.42 2.342 10.39 6.234 14.3C4.863 43.052.295 47.969.241 48.023A.875.875 0 0 0 .875 49.5c7.247 0 12.688-3.473 15.378-5.62A33.322 33.322 0 0 0 28 46c15.465 0 28-10.185 28-22.75S43.465.5 28 .5zm10.5 25.375a.875.875 0 0 1-.875.875H31.5v6.125a.875.875 0 0 1-.875.875h-5.25a.875.875 0 0 1-.875-.875V26.75h-6.125a.875.875 0 0 1-.875-.875v-5.25a.875.875 0 0 1 .875-.875H24.5v-6.125a.875.875 0 0 1 .875-.875h5.25a.875.875 0 0 1 .875.875v6.125h6.125a.875.875 0 0 1 .875.875v5.25z" fill="#F7941E"/>
</svg>
