<svg width="32" height="32" viewBox="0 0 32 32" fill="none" xmlns="http://www.w3.org/2000/svg">
<circle cx="16" cy="16" r="15.5" fill="white" stroke="#E8E8E8"/>
<path d="M16 9C11.5819 9 8 11.91 8 15.5C8 17.0487 8.66906 18.4688 9.78125 19.5856C9.38937 21.1578 8.08438 22.5625 8.06875 22.5781C8.03517 22.6136 8.01272 22.6581 8.00416 22.7062C7.99561 22.7543 8.00132 22.8038 8.0206 22.8487C8.03988 22.8936 8.07187 22.9318 8.11264 22.9587C8.15341 22.9856 8.20116 22.9999 8.25 23C10.3206 23 11.875 22.0078 12.6438 21.3944C13.7169 21.7966 14.8539 22.0018 16 22C20.4184 22 24 19.09 24 15.5C24 11.91 20.4184 9 16 9ZM19 16.25C19 16.3163 18.9737 16.3799 18.9268 16.4268C18.8799 16.4737 18.8163 16.5 18.75 16.5H17V18.25C17 18.3163 16.9737 18.3799 16.9268 18.4268C16.8799 18.4737 16.8163 18.5 16.75 18.5H15.25C15.1837 18.5 15.1201 18.4737 15.0732 18.4268C15.0263 18.3799 15 18.3163 15 18.25V16.5H13.25C13.1837 16.5 13.1201 16.4737 13.0732 16.4268C13.0263 16.3799 13 16.3163 13 16.25V14.75C13 14.6837 13.0263 14.6201 13.0732 14.5732C13.1201 14.5263 13.1837 14.5 13.25 14.5H15V12.75C15 12.6837 15.0263 12.6201 15.0732 12.5732C15.1201 12.5263 15.1837 12.5 15.25 12.5H16.75C16.8163 12.5 16.8799 12.5263 16.9268 12.5732C16.9737 12.6201 17 12.6837 17 12.75V14.5H18.75C18.8163 14.5 18.8799 14.5263 18.9268 14.5732C18.9737 14.6201 19 14.6837 19 14.75V16.25Z" fill="#F7941E"/>
</svg>
