<svg width="17" height="17" viewBox="0 0 17 17" fill="none" xmlns="http://www.w3.org/2000/svg">
    <path d="M7.172 0h2.656c.442 0 .797.355.797.797v5.578h2.912c.59 0 .886.714.468 1.132l-5.05 5.054a.643.643 0 0 1-.907 0L2.992 7.507a.663.663 0 0 1 .468-1.132h2.915V.797c0-.442.355-.797.797-.797zM17 12.484v3.72a.795.795 0 0 1-.797.796H.797A.795.795 0 0 1 0 16.203v-3.719c0-.441.355-.796.797-.796h4.87l1.628 1.627a1.702 1.702 0 0 0 2.41 0l1.627-1.627h4.871c.442 0 .797.355.797.796zm-4.117 2.922a.666.666 0 0 0-.664-.664.666.666 0 0 0-.664.664c0 .365.299.664.664.664a.666.666 0 0 0 .664-.664zm2.125 0a.666.666 0 0 0-.664-.664.666.666 0 0 0-.664.664c0 .365.299.664.664.664a.666.666 0 0 0 .664-.664z" fill="#378FCE"/>
</svg>
