<svg width="32" height="32" viewBox="0 0 32 32" fill="none" xmlns="http://www.w3.org/2000/svg">
    <circle cx="16" cy="16" r="15.5" fill="#fff" stroke="#E8E8E8"/>
    <path d="M8.469 17.438a.47.47 0 0 0-.469.468v.938c0 .258.21.468.469.468h3.281v-1.875H8.469zm14.326-5.362-2.868-2.87A.703.703 0 0 0 19.429 9h-.179v3.75H23v-.179a.7.7 0 0 0-.205-.495zm-4.483.908V9h-5.859a.701.701 0 0 0-.703.703v7.735h3.75v-1.91a.47.47 0 0 1 .803-.332l2.8 2.827a.499.499 0 0 1 0 .704L16.3 21.55a.47.47 0 0 1-.803-.331v-1.907H11.75v3.984c0 .39.313.703.703.703h9.844c.39 0 .703-.314.703-.703v-9.61h-3.984a.705.705 0 0 1-.703-.703z" fill="#F7941E"/>
</svg>
