<svg width="21" height="23" viewBox="0 0 21 23" fill="none" xmlns="http://www.w3.org/2000/svg">
<path d="M18.5725 2.74073H16.4315V1.82837C16.4315 1.32658 16.0237 0.916016 15.5192 0.916016C15.0177 0.916016 14.6068 1.32658 14.6068 1.82837V2.74073H7.23497V1.82837C7.23497 1.32658 6.82441 0.916016 6.32261 0.916016C5.81777 0.916016 5.41025 1.32658 5.41025 1.82837V2.74073H3.26925C1.92808 2.74073 0.833252 3.83556 0.833252 5.17673V20.48C0.833252 21.8212 1.92808 22.916 3.26925 22.916H18.5725C19.9137 22.916 21.0085 21.8212 21.0085 20.48V5.17673C21.0085 3.83556 19.9137 2.74073 18.5725 2.74073ZM19.1838 20.48C19.1838 20.8146 18.9071 21.0913 18.5725 21.0913H3.26925C2.93472 21.0913 2.65797 20.8146 2.65797 20.48V10.5596H19.1838V20.48ZM19.1838 8.73493H2.65797V5.17673C2.65797 4.8422 2.93472 4.56545 3.26925 4.56545H5.41025V5.99785C5.41025 6.49965 5.81777 6.91021 6.32261 6.91021C6.82441 6.91021 7.23497 6.49965 7.23497 5.99785V4.56545H14.6068V5.99785C14.6068 6.49965 15.0177 6.91021 15.5192 6.91021C16.0237 6.91021 16.4315 6.49965 16.4315 5.99785V4.56545H18.5725C18.9071 4.56545 19.1838 4.8422 19.1838 5.17673V8.73493Z" fill="#F3943D"/>
<path d="M6.56832 14.729H6.41626C5.91234 14.729 5.50391 14.3206 5.50391 13.8167C5.50391 13.3127 5.91234 12.9043 6.41626 12.9043H6.56832C7.07225 12.9043 7.48068 13.3127 7.48068 13.8167C7.48068 14.3206 7.07195 14.729 6.56832 14.729Z" fill="#F3943D"/>
<path d="M11.027 14.729H10.8147C10.3108 14.729 9.90234 14.3206 9.90234 13.8167C9.90234 13.3127 10.3108 12.9043 10.8147 12.9043H11.027C11.5309 12.9043 11.9393 13.3127 11.9393 13.8167C11.9393 14.3206 11.5309 14.729 11.027 14.729Z" fill="#F3943D"/>
<path d="M15.4255 14.729H15.2734C14.7695 14.729 14.3611 14.3206 14.3611 13.8167C14.3611 13.3127 14.7695 12.9043 15.2734 12.9043H15.4255C15.9294 12.9043 16.3379 13.3127 16.3379 13.8167C16.3379 14.3206 15.9297 14.729 15.4255 14.729Z" fill="#F3943D"/>
<path d="M6.56832 19.1372H6.41626C5.91234 19.1372 5.50391 18.7288 5.50391 18.2249C5.50391 17.7209 5.91234 17.3125 6.41626 17.3125H6.56832C7.07225 17.3125 7.48068 17.7209 7.48068 18.2249C7.48068 18.7288 7.07195 19.1372 6.56832 19.1372Z" fill="#F3943D"/>
<path d="M11.027 19.1372H10.8147C10.3108 19.1372 9.90234 18.7288 9.90234 18.2249C9.90234 17.7209 10.3108 17.3125 10.8147 17.3125H11.027C11.5309 17.3125 11.9393 17.7209 11.9393 18.2249C11.9393 18.7288 11.5309 19.1372 11.027 19.1372Z" fill="#F3943D"/>
<path d="M15.4255 19.1372H15.2734C14.7695 19.1372 14.3611 18.7288 14.3611 18.2249C14.3611 17.7209 14.7695 17.3125 15.2734 17.3125H15.4255C15.9294 17.3125 16.3379 17.7209 16.3379 18.2249C16.3379 18.7288 15.9297 19.1372 15.4255 19.1372Z" fill="#F3943D"/>
</svg>
