<svg width="20" height="23" viewBox="0 0 20 23" fill="none" xmlns="http://www.w3.org/2000/svg">
<path d="M4.14272 3.75742H2.76484C2.56583 3.75742 2.40439 3.91885 2.40439 4.11787V5.37061C2.40439 5.56963 2.56583 5.73106 2.76484 5.73106H4.14272C4.34174 5.73106 4.50317 5.56963 4.50317 5.37061V4.11787C4.50317 3.91885 4.34174 3.75742 4.14272 3.75742ZM3.78227 5.01016H3.1253V4.47832H3.78227V5.01016Z" fill="#F3943D" stroke="#F3943D" stroke-width="0.2"/>
<path d="M4.09138 7.16758H2.71333C2.51431 7.16758 2.35288 7.32901 2.35288 7.52803V8.78077C2.35288 8.97979 2.51431 9.14122 2.71333 9.14122H4.09138C4.2904 9.14122 4.45183 8.97979 4.45183 8.78077V7.52803C4.45183 7.32901 4.2904 7.16758 4.09138 7.16758ZM3.73093 8.42032H3.07378V7.88848H3.73093V8.42032Z" fill="#F3943D" stroke="#F3943D" stroke-width="0.2"/>
<path d="M2.68794 12.5397H4.06582C4.26484 12.5397 4.42627 12.3782 4.42627 12.1792V10.9265C4.42627 10.7274 4.26484 10.566 4.06582 10.566H2.68794C2.48892 10.566 2.32749 10.7274 2.32749 10.9265V12.1792C2.32749 12.3782 2.48892 12.5397 2.68794 12.5397ZM3.04839 11.2869H3.70537V11.8188H3.04839V11.2869Z" fill="#F3943D" stroke="#F3943D" stroke-width="0.2"/>
<path d="M4.09138 13.943H2.71333C2.51431 13.943 2.35288 14.1044 2.35288 14.3034V15.5562C2.35288 15.7552 2.51431 15.9166 2.71333 15.9166H4.09138C4.2904 15.9166 4.45183 15.7552 4.45183 15.5562V14.3034C4.45183 14.1044 4.2904 13.943 4.09138 13.943ZM3.73093 15.1957H3.07378V14.6639H3.73093V15.1957Z" fill="#F3943D" stroke="#F3943D" stroke-width="0.2"/>
<path d="M5.45698 5.07793H9.86718C10.0662 5.07793 10.2276 4.9165 10.2276 4.71748C10.2276 4.51846 10.0662 4.35703 9.86718 4.35703H5.45698C5.25796 4.35703 5.09653 4.51846 5.09653 4.71748C5.09653 4.9165 5.25796 5.07793 5.45698 5.07793Z" fill="#F3943D" stroke="#F3943D" stroke-width="0.2"/>
<path d="M11.7718 8.32793C11.971 8.32699 12.1315 8.16501 12.1306 7.96565C12.1296 7.76705 11.9683 7.60703 11.7701 7.60703L11.7689 7.60703L11.7685 7.60703L5.76929 7.63552C5.76929 7.63552 5.76929 7.63552 5.76929 7.63552C5.5701 7.63646 5.40956 7.79844 5.4105 7.9978L5.4105 7.9978C5.41144 8.1964 5.57273 8.35642 5.77095 8.35642H5.77214V8.35642L5.77261 8.35642L11.7718 8.32793ZM11.7718 8.32793L11.7713 8.22793M11.7718 8.32793L11.7718 8.32793L11.7713 8.22793M11.7713 8.22793L5.77214 8.25642H5.77095C5.62767 8.25642 5.51118 8.14078 5.5105 7.99732C5.50982 7.8532 5.6258 7.7362 5.76976 7.73552L11.7689 7.70703H11.7701C11.9134 7.70703 12.0299 7.82267 12.0306 7.96613C12.0313 8.11025 11.9153 8.22725 11.7713 8.22793ZM5.50983 7.99733H5.50983H5.50983Z" fill="#F3943D" stroke="#F3943D" stroke-width="0.2"/>
<path d="M5.42793 11.9588H7.81285C8.01187 11.9588 8.1733 11.7974 8.1733 11.5983C8.1733 11.3993 8.01187 11.2379 7.81285 11.2379H5.42793C5.22891 11.2379 5.06748 11.3993 5.06748 11.5983C5.06748 11.7974 5.22891 11.9588 5.42793 11.9588Z" fill="#F3943D" stroke="#F3943D" stroke-width="0.2"/>
<path d="M8.17541 14.607H5.34199C5.14297 14.607 4.98154 14.7685 4.98154 14.9675C4.98154 15.1665 5.14297 15.3279 5.34199 15.3279H8.17541C8.37443 15.3279 8.53586 15.1665 8.53586 14.9675C8.53586 14.7685 8.37443 14.607 8.17541 14.607Z" fill="#F3943D" stroke="#F3943D" stroke-width="0.2"/>
<path d="M13.7711 15.6322C13.959 16.089 14.4318 16.3643 14.9244 16.3469C15.7331 16.3185 16.2733 15.5494 15.9801 14.8366C15.7439 14.2625 15.058 13.9752 14.448 14.1949C13.838 14.4146 13.535 15.0581 13.7711 15.6322Z" fill="#F3943D"/>
<path d="M13.1918 17.3583C12.7738 17.69 12.2756 18.1678 12.1323 18.9261C12.1018 19.0878 12.2262 19.235 12.388 19.235C12.4521 19.2351 17.3048 19.2384 17.2694 19.2384C17.4117 19.2384 17.5278 19.1241 17.5299 18.9817C17.5312 18.8905 17.5035 18.8194 17.4432 18.69C17.266 18.2378 17.0947 17.826 16.746 17.4665C16.3436 17.0534 15.7541 16.7594 15.1068 16.7011C14.3784 16.6365 13.7695 16.9006 13.1918 17.3583ZM16.3724 17.8293C16.6169 18.0817 16.7621 18.389 16.8935 18.7168L12.7333 18.7145C12.8657 18.3821 13.1127 18.0857 13.5151 17.7666C13.9824 17.3966 14.4647 17.169 15.061 17.2199C15.5732 17.266 16.0459 17.4963 16.3724 17.8293Z" fill="#F3943D"/>
<path d="M15.6557 12.1564C15.3255 12.0059 14.6464 11.9244 14.5404 11.9183C14.5131 11.9167 14.4857 11.9173 14.4583 11.9178C14.438 11.9183 14.4177 11.9187 14.3973 11.9182C14.5558 9.76297 14.4184 6.91334 14.1727 5.08022C14.0443 4.1168 13.7666 2.48598 12.952 1.97065C12.9493 1.96682 12.9467 1.96294 12.9441 1.95907C12.9347 1.94503 12.9253 1.93102 12.9118 1.91955C11.8756 1.03781 9.52514 0.833657 9.06443 0.801779C9.05416 0.801044 9.04448 0.803009 9.03476 0.804981C9.02935 0.806081 9.02392 0.807182 9.01837 0.807819C8.31007 0.626933 7.20727 0.600771 6.53309 0.584777L6.50283 0.584058C6.00977 0.572424 5.21487 0.547698 4.37891 0.521696C2.79125 0.472312 1.05549 0.418322 0.958147 0.44065C0.777881 0.393781 0.636249 0.53741 0.64015 0.694953L0.640553 0.710214C0.459925 0.957862 0.358398 1.25649 0.358398 1.56615V17.6934C0.358398 18.1425 0.593576 18.4124 0.666573 18.4962C0.677016 18.5082 0.684139 18.5164 0.68678 18.5208L0.687734 18.5247C0.707979 18.6711 0.832532 18.75 0.939431 18.7508C0.939431 18.7508 0.937881 18.7518 0.950792 18.7489L0.952657 18.7491C3.83503 18.6312 6.71186 18.6537 9.51388 18.8083C10.8304 22.8733 16.2358 23.7811 18.7227 20.1784C21.119 17.2191 19.415 12.7651 15.6557 12.1564ZM19.3097 17.0569C19.3097 19.5101 17.3137 21.5062 14.8603 21.5062C12.4069 21.5062 10.4109 19.5101 10.4109 17.0569C10.4109 14.6036 12.4069 12.6075 14.8603 12.6075C17.3137 12.6075 19.3097 14.6036 19.3097 17.0569ZM10.6807 2.8874C10.5411 2.69233 10.4193 2.46562 10.2922 2.22901C10.1449 1.95483 9.99049 1.66735 9.79292 1.4004C10.6074 1.51121 11.4452 1.71083 12.0435 1.99167C11.5754 2.18048 11.0585 2.55268 10.6807 2.8874ZM1.20363 18.2211C1.20498 17.613 1.21243 16.7773 1.2214 15.7699C1.25347 12.1712 1.30506 6.3821 1.16783 0.954514C7.74571 1.11482 8.11259 1.14627 8.86943 1.30369C9.23626 1.37992 9.56076 1.97415 9.86362 2.52873C10.2129 3.16842 10.5335 3.75535 10.8569 3.43375C11.187 3.10665 12.0936 2.39107 12.5552 2.38652C12.5883 2.38483 12.65 2.38619 12.6845 2.41501C13.1598 2.81176 13.3286 3.4994 13.3898 3.74874C13.3999 3.79003 13.4071 3.8193 13.4122 3.83325C13.903 5.85965 14.0431 9.70773 13.8735 11.9395C11.1045 12.2193 8.67162 15.048 9.37264 18.2802C6.69668 18.138 3.95436 18.1162 1.20363 18.2211Z" fill="#F3943D"/>
<path d="M15.6557 12.1564C15.3255 12.0059 14.6464 11.9244 14.5404 11.9183C14.5131 11.9167 14.4857 11.9173 14.4583 11.9178C14.438 11.9183 14.4177 11.9187 14.3973 11.9182C14.5558 9.76297 14.4184 6.91334 14.1727 5.08022C14.0443 4.1168 13.7666 2.48598 12.952 1.97065C12.9493 1.96682 12.9467 1.96294 12.9441 1.95907C12.9347 1.94503 12.9253 1.93102 12.9118 1.91955C11.8756 1.03781 9.52514 0.833657 9.06443 0.801779C9.05416 0.801044 9.04448 0.803009 9.03476 0.804981C9.02935 0.806081 9.02392 0.807182 9.01837 0.807819C8.31007 0.626933 7.20727 0.600771 6.53309 0.584777L6.50283 0.584058C6.00977 0.572424 5.21487 0.547698 4.37891 0.521696C2.79125 0.472312 1.05549 0.418322 0.958147 0.44065C0.777881 0.393781 0.636249 0.53741 0.64015 0.694953L0.640553 0.710214C0.459925 0.957862 0.358398 1.25649 0.358398 1.56615V17.6934C0.358398 18.1425 0.593576 18.4124 0.666573 18.4962C0.677016 18.5082 0.684139 18.5164 0.68678 18.5208L0.687734 18.5247C0.707979 18.6711 0.832532 18.75 0.939431 18.7508C0.939431 18.7508 0.937881 18.7518 0.950792 18.7489L0.952657 18.7491C3.83503 18.6312 6.71186 18.6537 9.51388 18.8083C10.8304 22.8733 16.2358 23.7811 18.7227 20.1784C21.119 17.2191 19.415 12.7651 15.6557 12.1564ZM19.3097 17.0569C19.3097 19.5101 17.3137 21.5062 14.8603 21.5062C12.4069 21.5062 10.4109 19.5101 10.4109 17.0569C10.4109 14.6036 12.4069 12.6075 14.8603 12.6075C17.3137 12.6075 19.3097 14.6036 19.3097 17.0569ZM10.6807 2.8874C10.5411 2.69233 10.4193 2.46562 10.2922 2.22901C10.1449 1.95483 9.99049 1.66735 9.79292 1.4004C10.6074 1.51121 11.4452 1.71083 12.0435 1.99167C11.5754 2.18048 11.0585 2.55268 10.6807 2.8874ZM1.20363 18.2211C1.20498 17.613 1.21243 16.7773 1.2214 15.7699C1.25347 12.1712 1.30506 6.3821 1.16783 0.954514C7.74571 1.11482 8.11259 1.14627 8.86943 1.30369C9.23626 1.37992 9.56076 1.97415 9.86362 2.52873C10.2129 3.16842 10.5335 3.75535 10.8569 3.43375C11.187 3.10665 12.0936 2.39107 12.5552 2.38652C12.5883 2.38483 12.65 2.38619 12.6845 2.41501C13.1598 2.81176 13.3286 3.4994 13.3898 3.74874C13.3999 3.79003 13.4071 3.8193 13.4122 3.83325C13.903 5.85965 14.0431 9.70773 13.8735 11.9395C11.1045 12.2193 8.67162 15.048 9.37264 18.2802C6.69668 18.138 3.95436 18.1162 1.20363 18.2211Z" stroke="#F3943D"/>
</svg>
