<svg width="30" height="30" viewBox="0 0 30 30" fill="none" xmlns="http://www.w3.org/2000/svg">
<path d="M21.0195 1.02539C20.9762 1.02522 20.9331 1.03084 20.8913 1.0421L19.0007 1.53862C18.879 1.57037 18.7751 1.6481 18.712 1.7547C18.6489 1.86131 18.6317 1.98806 18.6642 2.10706C18.6967 2.22607 18.7762 2.32759 18.8852 2.38929C18.9942 2.45099 19.1238 2.46782 19.2455 2.43607L20.0162 2.23467C16.6867 7.60637 9.14493 14.1085 1.57849 15.5757C1.45489 15.5999 1.34616 15.671 1.27621 15.7735C1.20625 15.876 1.18081 16.0015 1.20548 16.1224C1.23015 16.2432 1.30291 16.3496 1.40775 16.418C1.51259 16.4864 1.64092 16.5112 1.76452 16.4871C9.74478 14.94 17.3796 8.31449 20.8486 2.68479L21.0603 3.45695C21.0763 3.51588 21.1041 3.57113 21.1421 3.61955C21.18 3.66798 21.2273 3.70863 21.2813 3.73918C21.3352 3.76973 21.3948 3.78958 21.4567 3.79761C21.5185 3.80563 21.5813 3.80167 21.6416 3.78595C21.7019 3.77023 21.7584 3.74305 21.8079 3.70598C21.8574 3.6689 21.899 3.62265 21.9302 3.56987C21.9615 3.51708 21.9818 3.4588 21.99 3.39834C21.9982 3.33788 21.9942 3.27643 21.9781 3.21751L21.4731 1.37064C21.4464 1.27265 21.3875 1.18594 21.3056 1.12376C21.2237 1.06158 21.1232 1.02642 21.0195 1.02539ZM19.2304 7.67783C19.1045 7.67783 18.9838 7.72672 18.8948 7.81374C18.8058 7.90077 18.7558 8.0188 18.7558 8.14187V16.5855H19.1952C19.3917 16.5855 19.5559 16.6282 19.7049 16.6829V8.6059H21.6032V12.9233L22.2761 12.2672L22.1147 12.4537C22.2343 12.2866 22.3871 12.1725 22.5523 12.0843V8.14187C22.5523 8.0188 22.5023 7.90077 22.4133 7.81374C22.3243 7.72672 22.2036 7.67783 22.0777 7.67783H19.2304ZM24.4316 12.3182C24.3108 12.3181 24.1942 12.3615 24.1041 12.4401C24.0139 12.5186 23.9565 12.6269 23.9428 12.7442L23.9447 12.7228L23.883 13.0829L23.5887 12.875L23.6808 12.9614C23.4957 12.734 23.08 12.7247 22.893 12.9855L22.9471 12.9233L21.8442 14.0017C21.8244 14.0209 21.8063 14.0417 21.7901 14.0639C21.7309 14.1486 21.7 14.2491 21.7017 14.3517C21.7034 14.4543 21.7376 14.5538 21.7996 14.6365L22.0075 14.9177L21.6383 14.9771L21.7161 14.9679C21.6512 14.9666 21.5867 14.9786 21.5267 15.0031C21.4667 15.0275 21.4126 15.0639 21.3678 15.1098C21.3212 15.1539 21.2843 15.2069 21.2595 15.2655C21.2347 15.3241 21.2224 15.387 21.2235 15.4504V16.9716C21.2245 17.0832 21.2646 17.1911 21.3371 17.2772C21.4097 17.3634 21.5103 17.4226 21.6222 17.4449C21.6275 17.445 21.6329 17.445 21.6383 17.4449L22.0113 17.5061L21.793 17.805C21.7856 17.8149 21.7787 17.8251 21.7721 17.8356C21.7147 17.9283 21.6907 18.0371 21.7037 18.1447C21.7168 18.2523 21.7663 18.3526 21.8442 18.4296L22.9471 19.4996L22.893 19.4365C23.0829 19.701 23.4957 19.6927 23.6846 19.456L23.5849 19.5507L23.883 19.3437L23.9447 19.7029L23.9409 19.6704C23.9542 19.7966 24.0045 19.8839 24.0775 19.9581C24.1516 20.0333 24.2664 20.1066 24.4316 20.1066H25.9881C26.0547 20.1066 26.1205 20.0932 26.1815 20.0674C26.2426 20.0415 26.2976 20.0037 26.3431 19.9562C26.4175 19.8828 26.4643 19.787 26.476 19.6843L26.5339 19.3363L26.8452 19.5525L26.7493 19.4634C26.9354 19.6908 27.3482 19.6992 27.5352 19.4384L27.483 19.5015L28.5774 18.4324C28.5963 18.4128 28.6134 18.3917 28.6286 18.3692C28.688 18.2848 28.719 18.1844 28.7173 18.0819C28.7156 17.9794 28.6813 17.88 28.6191 17.7975L28.4084 17.508L28.7805 17.4458L28.7026 17.4551C28.7678 17.4563 28.8325 17.4442 28.8927 17.4196C28.9528 17.395 29.007 17.3584 29.0519 17.3122C29.0987 17.2694 29.1357 17.2174 29.1606 17.1597C29.1854 17.102 29.1976 17.0398 29.1962 16.9771V15.4551C29.195 15.3436 29.1548 15.236 29.0823 15.15C29.0097 15.064 28.9092 15.005 28.7975 14.9827C28.7912 14.9826 28.7849 14.9826 28.7786 14.9827L28.416 14.9252L28.6286 14.6291C28.6353 14.6197 28.6416 14.6101 28.6476 14.6003C28.705 14.5079 28.7292 14.3994 28.7165 14.292C28.7038 14.1846 28.6548 14.0844 28.5774 14.0073L27.483 12.9307L27.5352 12.9911C27.3454 12.7266 26.9344 12.734 26.7455 12.9706L26.8433 12.8778L26.5377 13.0922L26.475 12.7256L26.4788 12.7572C26.4696 12.6483 26.4207 12.5462 26.3412 12.4695C26.2959 12.4221 26.2411 12.3845 26.1801 12.3589C26.1192 12.3334 26.0535 12.3204 25.9872 12.321H24.4316V12.3182ZM13.5356 13.2463C13.4097 13.2463 13.289 13.2952 13.2 13.3822C13.111 13.4692 13.061 13.5872 13.061 13.7103V18.6569L14.0045 17.7344H14.0102V14.1781H15.9084V16.8917C16.1144 16.7108 16.3944 16.5911 16.7987 16.5911H16.8575V13.7159C16.8575 13.5928 16.8075 13.4748 16.7185 13.3878C16.6295 13.3007 16.5088 13.2518 16.383 13.2518L13.5356 13.2463ZM24.8179 13.2463H25.6018L25.7281 13.973C25.7415 14.0505 25.7748 14.1234 25.8249 14.1849C25.875 14.2463 25.9403 14.2944 26.0146 14.3244C26.0888 14.3545 26.1697 14.3656 26.2496 14.3567C26.3295 14.3478 26.4057 14.3192 26.4712 14.2737L27.0825 13.8467L27.6349 14.3915L27.2011 14.9948C27.1547 15.0592 27.1257 15.1341 27.1171 15.2125C27.1084 15.2908 27.1203 15.37 27.1517 15.4427C27.183 15.5153 27.2328 15.5789 27.2962 15.6275C27.3597 15.6761 27.4347 15.7081 27.5143 15.7205L28.2471 15.8347V16.5994L27.502 16.721C27.4224 16.7339 27.3475 16.7665 27.2844 16.8156C27.2213 16.8647 27.172 16.9288 27.1412 17.0017C27.1104 17.0746 27.0991 17.154 27.1085 17.2324C27.1178 17.3107 27.1474 17.3855 27.1945 17.4495L27.6339 18.05L27.0834 18.5883L26.4599 18.1567C26.3941 18.1111 26.3175 18.0826 26.2374 18.0739C26.1573 18.0652 26.0762 18.0767 26.0018 18.1071C25.9274 18.1376 25.8622 18.1861 25.8124 18.248C25.7625 18.3099 25.7295 18.3833 25.7167 18.4611L25.5999 19.1859H24.8179L24.6935 18.4667C24.6801 18.3892 24.6468 18.3163 24.5967 18.2548C24.5466 18.1933 24.4813 18.1453 24.407 18.1152C24.3328 18.0852 24.2519 18.0741 24.172 18.0829C24.0921 18.0918 24.0159 18.1204 23.9504 18.166L23.3439 18.5864L22.7877 18.0481L23.2252 17.4495C23.2723 17.3855 23.3019 17.3107 23.3112 17.2324C23.3206 17.154 23.3093 17.0746 23.2785 17.0017C23.2477 16.9288 23.1984 16.8647 23.1353 16.8156C23.0722 16.7665 22.9973 16.7339 22.9177 16.721L22.1726 16.6003V15.8328L22.9177 15.7094C22.9971 15.6962 23.0718 15.6634 23.1347 15.6142C23.1976 15.565 23.2466 15.5009 23.2772 15.428C23.3078 15.3551 23.3189 15.2758 23.3095 15.1976C23.3 15.1194 23.2704 15.0448 23.2233 14.9808L22.7877 14.3915L23.3439 13.8477L23.9466 14.2746C24.0122 14.3211 24.0888 14.3504 24.1693 14.3597C24.2498 14.369 24.3313 14.358 24.4062 14.3277C24.4811 14.2975 24.5468 14.249 24.5971 14.1869C24.6474 14.1248 24.6806 14.0512 24.6935 13.973L24.8179 13.2463ZM25.2127 14.824C24.8351 14.826 24.4735 14.9736 24.2065 15.2348C23.9396 15.496 23.7889 15.8496 23.7871 16.2189C23.7871 16.9846 24.4335 17.6073 25.2127 17.6073C25.991 17.6073 26.6345 16.9799 26.6345 16.2189C26.633 15.8501 26.4829 15.4968 26.2168 15.2355C25.9506 14.9742 25.5898 14.8269 25.2127 14.824ZM25.2127 15.7521C25.4804 15.7521 25.6854 15.9535 25.6854 16.2189C25.6871 16.28 25.676 16.3407 25.6528 16.3975C25.6297 16.4542 25.5949 16.5057 25.5506 16.5488C25.5063 16.5919 25.4535 16.6257 25.3954 16.6481C25.3373 16.6706 25.2751 16.6811 25.2127 16.6792C25.1502 16.6807 25.088 16.6699 25.0299 16.6474C24.9718 16.6248 24.9189 16.5911 24.8744 16.5481C24.8299 16.5051 24.7948 16.4538 24.771 16.3973C24.7473 16.3407 24.7355 16.28 24.7362 16.2189C24.7362 15.9572 24.945 15.7511 25.2127 15.7511V15.7521ZM7.84083 16.9586C7.71497 16.9586 7.59426 17.0075 7.50526 17.0945C7.41626 17.1815 7.36627 17.2995 7.36627 17.4226V28.5595C7.36627 28.6826 7.41626 28.8006 7.50526 28.8876C7.59426 28.9746 7.71497 29.0235 7.84083 29.0235H10.6882C10.8141 29.0235 10.9348 28.9746 11.0238 28.8876C11.1128 28.8006 11.1628 28.6826 11.1628 28.5595V17.4226C11.1628 17.2995 11.1128 17.1815 11.0238 17.0945C10.9348 17.0075 10.8141 16.9586 10.6882 16.9586H7.84083ZM16.7987 17.5154C16.4712 17.5154 16.327 17.7177 16.2975 17.9498L16.1362 18.8834L15.3731 18.3451C15.2849 18.2697 15.1713 18.2291 15.0542 18.231C14.9498 18.231 14.816 18.2495 14.6869 18.3795L12.9908 20.0361C12.9895 20.0391 12.9882 20.0422 12.987 20.0453C12.9388 20.0912 12.9012 20.1467 12.8768 20.208C12.8524 20.2694 12.8417 20.3351 12.8456 20.4008C12.8484 20.4973 12.8646 20.5808 12.9481 20.6885L13.5119 21.4542L12.5362 21.6156L12.6159 21.6064C12.5495 21.6051 12.4836 21.6173 12.4224 21.6422C12.3611 21.6671 12.3058 21.7042 12.26 21.7511C12.2122 21.7961 12.1744 21.8503 12.149 21.9101C12.1235 21.97 12.1109 22.0343 12.1119 22.0992V24.4426C12.1119 24.6105 12.1888 24.7228 12.2638 24.7952C12.3402 24.8706 12.4406 24.9184 12.5485 24.9307H12.5532L13.5166 25.0885L12.9471 25.8662C12.8801 25.9484 12.8442 26.0507 12.8456 26.1558C12.8417 26.2215 12.8524 26.2872 12.8768 26.3485C12.9012 26.4099 12.9388 26.4653 12.987 26.5112C12.9889 26.5144 12.9908 26.5174 12.9927 26.5205L14.6916 28.1678L14.6869 28.1586C14.816 28.2885 14.9498 28.3071 15.0542 28.3061C15.172 28.3085 15.2863 28.267 15.374 28.1901L16.1362 27.6611L16.2994 28.592C16.3156 28.7126 16.3611 28.7924 16.4323 28.8676C16.5054 28.9428 16.624 29.0254 16.7987 29.0254H19.1952C19.5217 29.0254 19.6641 28.8212 19.6935 28.5892L19.8473 27.65L20.6351 28.1929C20.749 28.2857 20.8486 28.3061 20.9521 28.308C21.0565 28.308 21.1922 28.2894 21.3222 28.1595L23.0012 26.5168C23.0032 26.5137 23.0051 26.5106 23.0069 26.5075C23.055 26.4616 23.0924 26.406 23.1166 26.3447C23.1409 26.2834 23.1514 26.2177 23.1474 26.1521C23.148 26.049 23.1125 25.9488 23.0468 25.8681L22.4764 25.0848L23.4568 24.9233L23.3771 24.9326C23.4432 24.9339 23.5088 24.9217 23.5697 24.8967C23.6307 24.8718 23.6857 24.8347 23.7311 24.7878C23.7791 24.7429 23.8172 24.6888 23.843 24.629C23.8688 24.5691 23.8817 24.5047 23.8811 24.4398V22.0955C23.8817 22.0296 23.8683 21.9644 23.8418 21.9039C23.8154 21.8433 23.7764 21.7888 23.7273 21.7437C23.6507 21.6674 23.5494 21.6195 23.4407 21.6082L22.4878 21.4579L23.0458 20.6839C23.1126 20.6026 23.1484 20.5013 23.1474 20.3971C23.1514 20.3315 23.1409 20.2658 23.1166 20.2044C23.0924 20.1431 23.055 20.0876 23.0069 20.0416C23.0057 20.0416 23.0044 20.0416 23.0031 20.0416L21.3213 18.3832C21.2744 18.3339 21.217 18.2953 21.1532 18.2699C21.0895 18.2446 21.0208 18.2332 20.9521 18.2365C20.8351 18.2335 20.7213 18.2743 20.6341 18.3507L20.6616 18.3293L19.8568 18.8908L19.6935 17.9498C19.6822 17.8459 19.6353 17.7488 19.5606 17.6741C19.5142 17.6247 19.4577 17.5854 19.3947 17.5587C19.3318 17.532 19.2638 17.5185 19.1952 17.5191H16.8319C16.8208 17.5187 16.8098 17.5187 16.7987 17.5191V17.5154ZM8.31539 17.8866H10.2136V28.0955H8.31539V17.8866ZM17.1764 18.4435H18.8165L19.0472 19.7734C19.0606 19.8509 19.0939 19.9238 19.144 19.9853C19.1941 20.0468 19.2594 20.0948 19.3336 20.1249C19.4079 20.1549 19.4888 20.166 19.5687 20.1572C19.6486 20.1483 19.7248 20.1197 19.7903 20.0741L20.9103 19.2936L22.0663 20.4333L21.2748 21.5321C21.2285 21.5965 21.1998 21.6713 21.1913 21.7496C21.1827 21.8278 21.1947 21.9069 21.226 21.9794C21.2573 22.0519 21.307 22.1154 21.3703 22.1639C21.4336 22.2125 21.5085 22.2445 21.588 22.2569L22.9319 22.4695V24.0713L21.5699 24.2959C21.4907 24.309 21.4161 24.3416 21.3532 24.3906C21.2904 24.4396 21.2413 24.5034 21.2105 24.576C21.1798 24.6487 21.1684 24.7278 21.1775 24.8059C21.1866 24.884 21.2158 24.9586 21.2624 25.0226L22.0644 26.1196L20.9103 27.2491L19.7733 26.462C19.7074 26.4164 19.6307 26.3879 19.5504 26.3794C19.4701 26.3708 19.3889 26.3824 19.3145 26.413C19.2401 26.4437 19.175 26.4924 19.1252 26.5546C19.0754 26.6168 19.0427 26.6903 19.0301 26.7683L18.8146 28.0973H17.1764L16.9468 26.7776C16.9331 26.7002 16.8996 26.6275 16.8494 26.5663C16.7991 26.505 16.7339 26.4573 16.6596 26.4274C16.5854 26.3976 16.5046 26.3866 16.4248 26.3956C16.3451 26.4046 16.269 26.4332 16.2036 26.4788L15.095 27.2491L13.9304 26.1196L14.7296 25.0226C14.7762 24.9586 14.8054 24.884 14.8145 24.8059C14.8236 24.7278 14.8122 24.6487 14.7815 24.576C14.7508 24.5034 14.7017 24.4396 14.6388 24.3906C14.5759 24.3416 14.5013 24.309 14.4221 24.2959L13.061 24.0713V22.4676L14.4221 22.2421C14.5017 22.2292 14.5766 22.1966 14.6397 22.1475C14.7028 22.0984 14.7521 22.0343 14.7829 21.9614C14.8137 21.8885 14.8249 21.8091 14.8156 21.7307C14.8063 21.6524 14.7767 21.5776 14.7296 21.5136L13.9304 20.4314L15.095 19.2917L16.2017 20.0723C16.2671 20.1183 16.3434 20.1473 16.4234 20.1565C16.5034 20.1657 16.5845 20.1548 16.659 20.1249C16.7335 20.0951 16.7991 20.0471 16.8494 19.9856C16.8997 19.9241 16.9332 19.8511 16.9468 19.7734L17.1764 18.4435ZM2.14607 18.8147C2.02021 18.8147 1.8995 18.8636 1.8105 18.9506C1.7215 19.0377 1.6715 19.1557 1.6715 19.2788V28.5595C1.6715 28.6826 1.7215 28.8006 1.8105 28.8876C1.8995 28.9746 2.02021 29.0235 2.14607 29.0235H4.99345C5.11931 29.0235 5.24002 28.9746 5.32902 28.8876C5.41801 28.8006 5.46801 28.6826 5.46801 28.5595V19.2788C5.46801 19.1557 5.41801 19.0377 5.32902 18.9506C5.24002 18.8636 5.11931 18.8147 4.99345 18.8147H2.14607ZM2.62063 19.7428H4.51888V28.0955H2.62063V19.7428ZM18.0031 20.7377C17.3155 20.7401 16.6568 21.0084 16.1707 21.4839C15.6846 21.9594 15.4105 22.6036 15.4082 23.276C15.4082 24.6709 16.5804 25.7985 18.0031 25.7985C18.6872 25.7977 19.343 25.5318 19.8268 25.0589C20.3106 24.586 20.5828 23.9448 20.5838 23.276C20.5838 21.8839 19.4297 20.7377 18.0031 20.7377ZM18.0031 21.6658C18.9143 21.6658 19.6347 22.3804 19.6347 23.276C19.637 23.4861 19.5963 23.6945 19.5151 23.889C19.4339 24.0835 19.3138 24.2602 19.1619 24.4087C19.0099 24.5572 18.8291 24.6746 18.6301 24.7539C18.4311 24.8331 18.218 24.8728 18.0031 24.8704C17.7877 24.8726 17.5739 24.833 17.3742 24.7538C17.1745 24.6747 16.9928 24.5575 16.8397 24.4092C16.6867 24.2609 16.5652 24.0844 16.4824 23.8899C16.3996 23.6953 16.3571 23.4867 16.3573 23.276C16.3573 22.385 17.092 21.6658 18.0031 21.6658Z" fill="url(#paint0_linear_172_79)" stroke="#F3943D" stroke-width="0.5"/>
<defs>
<linearGradient id="paint0_linear_172_79" x1="1.19599" y1="15.0254" x2="27.2979" y2="15.0254" gradientUnits="userSpaceOnUse">
<stop stop-color="#F7941E"/>
<stop offset="1" stop-color="#F3943D"/>
</linearGradient>
</defs>
</svg>
