<svg width="22" height="22" viewBox="0 0 22 22" fill="none" xmlns="http://www.w3.org/2000/svg">
<path d="M15.336 0.589847C15.3046 0.589719 15.2734 0.593883 15.2431 0.602222L13.8736 0.970034C13.7855 0.993555 13.7103 1.05113 13.6646 1.13011C13.6189 1.20908 13.6064 1.30297 13.6299 1.39113C13.6535 1.47929 13.711 1.55449 13.79 1.6002C13.869 1.6459 13.9629 1.65837 14.051 1.63485L14.6093 1.48566C12.1975 5.46491 6.73465 10.2815 1.2539 11.3685C1.16437 11.3863 1.08561 11.439 1.03494 11.515C0.984269 11.5909 0.965841 11.6839 0.98371 11.7734C1.00158 11.8629 1.05428 11.9417 1.13022 11.9924C1.20616 12.043 1.29912 12.0615 1.38865 12.0436C7.16915 10.8975 12.6994 5.98947 15.2122 1.8191L15.3655 2.3911C15.3772 2.43475 15.3973 2.47568 15.4248 2.51155C15.4522 2.54742 15.4865 2.57754 15.5256 2.60017C15.5647 2.6228 15.6079 2.63751 15.6527 2.64345C15.6974 2.6494 15.743 2.64646 15.7866 2.63482C15.8303 2.62317 15.8712 2.60304 15.9071 2.57557C15.9429 2.54811 15.9731 2.51385 15.9957 2.47474C16.0183 2.43564 16.033 2.39247 16.039 2.34768C16.0449 2.30289 16.042 2.25737 16.0303 2.21372L15.6646 0.845597C15.6452 0.773013 15.6026 0.708775 15.5432 0.662713C15.4839 0.61665 15.4111 0.59061 15.336 0.589847ZM14.04 5.51785C13.9489 5.51785 13.8614 5.55406 13.797 5.61853C13.7325 5.68299 13.6963 5.77043 13.6963 5.8616V12.1165H14.0146C14.1569 12.1165 14.2758 12.1481 14.3838 12.1887V6.20535H15.7588V9.4036L16.2462 8.91753L16.1293 9.05572C16.216 8.93197 16.3266 8.84741 16.4463 8.7821V5.8616C16.4463 5.77043 16.4101 5.68299 16.3456 5.61853C16.2811 5.55406 16.1937 5.51785 16.1025 5.51785H14.04ZM17.8075 8.95535C17.7201 8.95528 17.6356 8.98742 17.5703 9.04561C17.505 9.10381 17.4634 9.18401 17.4535 9.27091L17.4548 9.2551L17.4101 9.52185L17.197 9.36785L17.2637 9.43178C17.1296 9.26335 16.8285 9.25647 16.6931 9.44966L16.7323 9.4036L15.9334 10.2025C15.919 10.2166 15.9059 10.2321 15.8942 10.2485C15.8513 10.3113 15.8289 10.3857 15.8302 10.4617C15.8314 10.5377 15.8562 10.6114 15.9011 10.6727L16.0516 10.881L15.7842 10.925L15.8406 10.9182C15.7935 10.9173 15.7468 10.9261 15.7034 10.9442C15.6599 10.9624 15.6207 10.9893 15.5883 11.0233C15.5545 11.056 15.5278 11.0953 15.5098 11.1387C15.4919 11.1821 15.483 11.2287 15.4838 11.2757V12.4025C15.4845 12.4851 15.5135 12.5651 15.5661 12.6289C15.6186 12.6927 15.6915 12.7366 15.7725 12.7531C15.7764 12.7532 15.7803 12.7532 15.7842 12.7531L16.0544 12.7985L15.8963 13.0198C15.8909 13.0272 15.8859 13.0348 15.8811 13.0425C15.8396 13.1112 15.8222 13.1918 15.8316 13.2715C15.8411 13.3512 15.8769 13.4255 15.9334 13.4825L16.7323 14.2752L16.6931 14.2285C16.8306 14.4244 17.1296 14.4182 17.2665 14.2429L17.1943 14.313L17.4101 14.1597L17.4548 14.4258L17.4521 14.4017C17.4617 14.4952 17.4981 14.5598 17.5511 14.6148C17.6047 14.6705 17.6879 14.7248 17.8075 14.7248H18.935C18.9832 14.7248 19.0309 14.7149 19.0751 14.6958C19.1193 14.6766 19.1592 14.6486 19.1921 14.6135C19.246 14.5591 19.2799 14.4881 19.2884 14.412L19.3303 14.1542L19.5558 14.3144L19.4864 14.2484C19.6211 14.4168 19.9202 14.423 20.0556 14.2298L20.0178 14.2766L20.8105 13.4846C20.8242 13.4701 20.8367 13.4545 20.8476 13.4378C20.8907 13.3753 20.9131 13.3009 20.9119 13.225C20.9107 13.1491 20.8858 13.0755 20.8408 13.0143L20.6881 12.7998L20.9576 12.7538L20.9013 12.7607C20.9485 12.7615 20.9954 12.7526 21.0389 12.7343C21.0825 12.7161 21.1218 12.689 21.1543 12.6548C21.1882 12.6231 21.215 12.5846 21.233 12.5418C21.251 12.4991 21.2598 12.453 21.2588 12.4066V11.2791C21.2579 11.1965 21.2288 11.1168 21.1763 11.0531C21.1237 10.9894 21.0509 10.9457 20.97 10.9292C20.9654 10.9291 20.9609 10.9291 20.9563 10.9292L20.6936 10.8865L20.8476 10.6672C20.8525 10.6603 20.8571 10.6532 20.8614 10.6459C20.903 10.5774 20.9205 10.4971 20.9113 10.4175C20.9021 10.338 20.8666 10.2637 20.8105 10.2066L20.0178 9.4091L20.0556 9.45378C19.9181 9.25785 19.6205 9.26335 19.4836 9.43866L19.5545 9.36991L19.3331 9.52872L19.2877 9.25716L19.2905 9.28053C19.2837 9.19987 19.2484 9.12427 19.1908 9.06741C19.158 9.03233 19.1182 9.00445 19.0741 8.98551C19.03 8.96658 18.9824 8.95701 18.9343 8.95741H17.8075V8.95535ZM9.91502 9.64285C9.82385 9.64285 9.73642 9.67906 9.67195 9.74353C9.60749 9.80799 9.57127 9.89543 9.57127 9.9866V13.651L10.2546 12.9676H10.2588V10.3331H11.6338V12.3433C11.783 12.2093 11.9858 12.1206 12.2786 12.1206H12.3213V9.99072C12.3213 9.89955 12.2851 9.81212 12.2206 9.74765C12.1561 9.68319 12.0687 9.64697 11.9775 9.64697L9.91502 9.64285ZM18.0873 9.64285H18.6552L18.7466 10.1812C18.7564 10.2386 18.7805 10.2926 18.8168 10.3381C18.8531 10.3837 18.9003 10.4192 18.9542 10.4415C19.008 10.4638 19.0666 10.472 19.1244 10.4654C19.1823 10.4589 19.2375 10.4377 19.285 10.4039L19.7277 10.0877L20.1278 10.4912L19.8136 10.9381C19.78 10.9858 19.759 11.0413 19.7528 11.0994C19.7465 11.1574 19.7551 11.2161 19.7778 11.2699C19.8005 11.3237 19.8366 11.3708 19.8825 11.4068C19.9285 11.4428 19.9829 11.4665 20.0405 11.4757L20.5713 11.5603V12.1268L20.0316 12.2168C19.9739 12.2264 19.9197 12.2506 19.874 12.2869C19.8282 12.3233 19.7925 12.3708 19.7702 12.4248C19.7479 12.4788 19.7398 12.5376 19.7465 12.5957C19.7533 12.6537 19.7747 12.7091 19.8088 12.7565L20.1271 13.2013L19.7284 13.6001L19.2767 13.2804C19.2291 13.2466 19.1736 13.2255 19.1156 13.2191C19.0575 13.2126 18.9988 13.2211 18.9449 13.2437C18.8911 13.2662 18.8438 13.3022 18.8077 13.348C18.7716 13.3939 18.7477 13.4483 18.7384 13.5059L18.6538 14.0428H18.0873L17.9973 13.51C17.9876 13.4526 17.9634 13.3986 17.9271 13.3531C17.8908 13.3075 17.8436 13.2719 17.7898 13.2497C17.736 13.2274 17.6774 13.2192 17.6195 13.2258C17.5616 13.2323 17.5064 13.2535 17.459 13.2873L17.0196 13.5987L16.6168 13.2L16.9337 12.7565C16.9678 12.7091 16.9893 12.6537 16.996 12.5957C17.0028 12.5376 16.9946 12.4788 16.9723 12.4248C16.95 12.3708 16.9143 12.3233 16.8686 12.2869C16.8229 12.2506 16.7686 12.2264 16.711 12.2168L16.1713 12.1275V11.5589L16.711 11.4675C16.7685 11.4577 16.8226 11.4334 16.8681 11.397C16.9137 11.3605 16.9492 11.313 16.9714 11.259C16.9935 11.2051 17.0015 11.1463 16.9947 11.0884C16.9879 11.0304 16.9664 10.9751 16.9323 10.9278L16.6168 10.4912L17.0196 10.0883L17.4562 10.4046C17.5037 10.439 17.5593 10.4607 17.6175 10.4676C17.6758 10.4745 17.7349 10.4664 17.7891 10.444C17.8434 10.4216 17.891 10.3857 17.9274 10.3397C17.9639 10.2937 17.9879 10.2391 17.9973 10.1812L18.0873 9.64285ZM18.3733 10.8116C18.0998 10.813 17.8379 10.9224 17.6445 11.1159C17.4512 11.3094 17.342 11.5714 17.3407 11.8449C17.3407 12.4121 17.8089 12.8734 18.3733 12.8734C18.9371 12.8734 19.4032 12.4087 19.4032 11.8449C19.4021 11.5717 19.2934 11.31 19.1006 11.1164C18.9078 10.9228 18.6465 10.8138 18.3733 10.8116ZM18.3733 11.4991C18.5672 11.4991 18.7157 11.6483 18.7157 11.8449C18.717 11.8901 18.7089 11.9352 18.6921 11.9772C18.6754 12.0192 18.6502 12.0574 18.6181 12.0893C18.586 12.1212 18.5478 12.1463 18.5057 12.1629C18.4636 12.1795 18.4186 12.1873 18.3733 12.1859C18.3281 12.187 18.283 12.179 18.2409 12.1623C18.1988 12.1456 18.1605 12.1206 18.1283 12.0888C18.0961 12.0569 18.0706 12.0189 18.0534 11.977C18.0362 11.9351 18.0276 11.8902 18.0282 11.8449C18.0282 11.651 18.1795 11.4984 18.3733 11.4984V11.4991ZM5.79002 12.3928C5.69885 12.3928 5.61142 12.4291 5.54695 12.4935C5.48249 12.558 5.44627 12.6454 5.44627 12.7366V20.9866C5.44627 21.0778 5.48249 21.1652 5.54695 21.2297C5.61142 21.2941 5.69885 21.3303 5.79002 21.3303H7.85252C7.94369 21.3303 8.03113 21.2941 8.09559 21.2297C8.16006 21.1652 8.19627 21.0778 8.19627 20.9866V12.7366C8.19627 12.6454 8.16006 12.558 8.09559 12.4935C8.03113 12.4291 7.94369 12.3928 7.85252 12.3928H5.79002ZM12.2786 12.8053C12.0415 12.8053 11.937 12.9552 11.9156 13.1271L11.7988 13.8187L11.246 13.42C11.1822 13.3641 11.0998 13.334 11.015 13.3354C10.9394 13.3354 10.8425 13.3492 10.749 13.4454L9.5204 14.6726C9.51946 14.6749 9.51854 14.6772 9.51765 14.6795C9.48271 14.7135 9.45549 14.7546 9.43781 14.8C9.42014 14.8454 9.41243 14.8941 9.41521 14.9428C9.41727 15.0143 9.42896 15.0762 9.48946 15.1559L9.89784 15.7231L9.19109 15.8427L9.24884 15.8358C9.20078 15.8349 9.15305 15.8439 9.10867 15.8624C9.06429 15.8809 9.02423 15.9083 8.99102 15.9431C8.95644 15.9764 8.92908 16.0165 8.91063 16.0609C8.89218 16.1052 8.88304 16.1529 8.88377 16.2009V17.9368C8.88377 18.0613 8.93946 18.1445 8.99377 18.1981C9.04917 18.254 9.12189 18.2893 9.20002 18.2985H9.20346L9.90127 18.4153L9.48877 18.9915C9.4402 19.0523 9.41421 19.1281 9.41521 19.206C9.41243 19.2546 9.42014 19.3033 9.43781 19.3488C9.45549 19.3942 9.48271 19.4353 9.51765 19.4693C9.519 19.4716 9.52037 19.4739 9.52177 19.4762L10.7524 20.6965L10.749 20.6896C10.8425 20.7858 10.9394 20.7996 11.015 20.7989C11.1003 20.8006 11.1832 20.7699 11.2467 20.713L11.7988 20.3211L11.917 21.0107C11.9287 21.1 11.9617 21.1592 12.0133 21.2148C12.0662 21.2705 12.1521 21.3317 12.2786 21.3317H14.0146C14.2511 21.3317 14.3542 21.1805 14.3755 21.0086L14.4869 20.3128L15.0575 20.715C15.14 20.7838 15.2122 20.7989 15.2871 20.8003C15.3628 20.8003 15.4611 20.7865 15.5553 20.6903L16.7715 19.4734C16.7729 19.4711 16.7742 19.4688 16.7756 19.4665C16.8104 19.4325 16.8375 19.3914 16.8551 19.3459C16.8726 19.3005 16.8802 19.2518 16.8773 19.2032C16.8778 19.1268 16.852 19.0526 16.8045 18.9928L16.3913 18.4126L17.1015 18.293L17.0437 18.2998C17.0916 18.3008 17.1391 18.2918 17.1833 18.2733C17.2274 18.2548 17.2672 18.2273 17.3001 18.1926C17.3349 18.1593 17.3625 18.1193 17.3812 18.0749C17.3999 18.0306 17.4092 17.9829 17.4088 17.9348V16.1982C17.4092 16.1494 17.3995 16.1011 17.3803 16.0562C17.3612 16.0114 17.3329 15.971 17.2974 15.9376C17.2419 15.8811 17.1685 15.8456 17.0898 15.8372L16.3995 15.7258L16.8038 15.1525C16.8521 15.0923 16.8781 15.0172 16.8773 14.94C16.8802 14.8914 16.8726 14.8428 16.8551 14.7973C16.8375 14.7519 16.8104 14.7108 16.7756 14.6767C16.7747 14.6767 16.7738 14.6767 16.7728 14.6767L15.5546 13.4482C15.5206 13.4117 15.4791 13.383 15.4329 13.3643C15.3867 13.3455 15.3369 13.3371 15.2871 13.3395C15.2024 13.3373 15.12 13.3675 15.0568 13.4241L15.0768 13.4083L14.4938 13.8242L14.3755 13.1271C14.3673 13.0502 14.3334 12.9782 14.2793 12.9229C14.2456 12.8863 14.2047 12.8572 14.1591 12.8374C14.1135 12.8177 14.0643 12.8077 14.0146 12.8081H12.3027C12.2947 12.8078 12.2867 12.8078 12.2786 12.8081V12.8053ZM6.13377 13.0803H7.50877V20.6428H6.13377V13.0803ZM12.5523 13.4928H13.7403L13.9073 14.478C13.917 14.5355 13.9412 14.5895 13.9775 14.635C14.0138 14.6805 14.061 14.7161 14.1148 14.7384C14.1687 14.7607 14.2272 14.7689 14.2851 14.7623C14.343 14.7557 14.3982 14.7346 14.4456 14.7008L15.2569 14.1226L16.0943 14.9668L15.5209 15.7808C15.4874 15.8285 15.4666 15.884 15.4604 15.9419C15.4542 15.9999 15.4629 16.0585 15.4856 16.1122C15.5083 16.1659 15.5442 16.2129 15.5901 16.2489C15.636 16.2848 15.6902 16.3086 15.7478 16.3178L16.7213 16.4752V17.6618L15.7347 17.8282C15.6773 17.8379 15.6233 17.8621 15.5777 17.8984C15.5322 17.9347 15.4966 17.9819 15.4744 18.0357C15.4521 18.0895 15.4439 18.1481 15.4504 18.206C15.457 18.2639 15.4782 18.3191 15.512 18.3665L16.0929 19.1792L15.2569 20.0158L14.4333 19.4328C14.3856 19.399 14.33 19.3779 14.2718 19.3716C14.2137 19.3652 14.1549 19.3738 14.101 19.3965C14.0471 19.4193 13.9999 19.4553 13.9638 19.5014C13.9278 19.5475 13.9041 19.6019 13.895 19.6597L13.7389 20.6442H12.5523L12.3859 19.6666C12.376 19.6093 12.3517 19.5554 12.3154 19.5101C12.279 19.4647 12.2317 19.4293 12.1779 19.4072C12.1241 19.3851 12.0656 19.377 12.0078 19.3836C11.9501 19.3903 11.8949 19.4115 11.8476 19.4452L11.0446 20.0158L10.201 19.1792L10.7799 18.3665C10.8137 18.3191 10.8348 18.2639 10.8414 18.206C10.848 18.1481 10.8398 18.0895 10.8175 18.0357C10.7952 17.9819 10.7597 17.9347 10.7141 17.8984C10.6686 17.8621 10.6146 17.8379 10.5571 17.8282L9.57127 17.6618V16.4738L10.5571 16.3068C10.6148 16.2972 10.669 16.2731 10.7148 16.2367C10.7605 16.2003 10.7962 16.1529 10.8185 16.0988C10.8408 16.0448 10.8489 15.986 10.8422 15.928C10.8354 15.8699 10.814 15.8146 10.7799 15.7671L10.201 14.9655L11.0446 14.1212L11.8462 14.6994C11.8936 14.7335 11.9488 14.755 12.0068 14.7618C12.0647 14.7686 12.1235 14.7606 12.1775 14.7384C12.2315 14.7163 12.2789 14.6808 12.3154 14.6352C12.3518 14.5897 12.3761 14.5356 12.3859 14.478L12.5523 13.4928ZM1.66502 13.7678C1.57385 13.7678 1.48642 13.8041 1.42195 13.8685C1.35749 13.933 1.32127 14.0204 1.32127 14.1116V20.9866C1.32127 21.0778 1.35749 21.1652 1.42195 21.2297C1.48642 21.2941 1.57385 21.3303 1.66502 21.3303H3.72752C3.81869 21.3303 3.90613 21.2941 3.97059 21.2297C4.03506 21.1652 4.07127 21.0778 4.07127 20.9866V14.1116C4.07127 14.0204 4.03506 13.933 3.97059 13.8685C3.90613 13.8041 3.81869 13.7678 3.72752 13.7678H1.66502ZM2.00877 14.4553H3.38377V20.6428H2.00877V14.4553ZM13.1511 15.1923C12.653 15.1942 12.1759 15.3929 11.8237 15.7451C11.4716 16.0974 11.2731 16.5746 11.2715 17.0727C11.2715 18.106 12.1205 18.9413 13.1511 18.9413C13.6466 18.9407 14.1216 18.7437 14.472 18.3934C14.8225 18.0431 15.0197 17.5681 15.0204 17.0727C15.0204 16.0414 14.1844 15.1923 13.1511 15.1923ZM13.1511 15.8798C13.8111 15.8798 14.3329 16.4092 14.3329 17.0727C14.3346 17.2283 14.3051 17.3827 14.2463 17.5268C14.1875 17.6709 14.1005 17.8018 13.9904 17.9118C13.8803 18.0218 13.7494 18.1087 13.6052 18.1675C13.4611 18.2262 13.3067 18.2555 13.1511 18.2538C12.995 18.2554 12.8402 18.2261 12.6955 18.1674C12.5508 18.1088 12.4193 18.022 12.3084 17.9122C12.1975 17.8023 12.1095 17.6715 12.0495 17.5274C11.9896 17.3833 11.9588 17.2287 11.959 17.0727C11.959 16.4127 12.4911 15.8798 13.1511 15.8798Z" fill="url(#paint0_linear_172_78)" stroke="#F3943D" stroke-width="0.5"/>
<defs>
<linearGradient id="paint0_linear_172_78" x1="0.976835" y1="10.9608" x2="19.8838" y2="10.9608" gradientUnits="userSpaceOnUse">
<stop stop-color="#F7941E"/>
<stop offset="1" stop-color="#F3943D"/>
</linearGradient>
</defs>
</svg>
