<svg width="24" height="24" viewBox="0 0 24 24" fill="none" xmlns="http://www.w3.org/2000/svg">
    <g clip-path="url(#zf9zmcxhpa)">
        <path d="M11.682 7.511 4 13.838v6.829a.667.667 0 0 0 .666.666l4.67-.012a.666.666 0 0 0 .663-.666v-3.988a.667.667 0 0 1 .667-.667h2.666a.667.667 0 0 1 .667.667v3.985a.667.667 0 0 0 .667.669l4.667.012a.667.667 0 0 0 .667-.666v-6.834l-7.68-6.322a.508.508 0 0 0-.638 0zm12.134 4.3-3.483-2.87V3.168a.5.5 0 0 0-.5-.5H17.5a.5.5 0 0 0-.5.5v3.025l-3.73-3.069a2 2 0 0 0-2.542 0L.18 11.811a.501.501 0 0 0-.067.705l1.062 1.291a.5.5 0 0 0 .705.068l9.8-8.072a.507.507 0 0 1 .638 0l9.802 8.072a.5.5 0 0 0 .704-.066l1.062-1.292a.5.5 0 0 0-.07-.706z" fill="#f3943d"/>
    </g>
    <defs>
        <clipPath id="zf9zmcxhpa">
            <path fill="#fff" d="M0 0h24v24H0z"/>
        </clipPath>
    </defs>
</svg>
