<svg width="24" height="23" viewBox="0 0 24 23" fill="none" xmlns="http://www.w3.org/2000/svg">
<path d="M13.5814 19.8366H2.40965C2.34549 19.8366 2.29015 19.7812 2.29015 19.7171V1.95506C2.29015 1.8909 2.34549 1.83556 2.40965 1.83556H20.1717C20.2358 1.83556 20.2912 1.8909 20.2912 1.95506V12.7838C20.2912 13.1851 20.6033 13.4973 21.0047 13.4973C21.406 13.4973 21.7181 13.1851 21.7181 12.7838V1.95506C21.7181 1.11445 21.0402 0.408594 20.1717 0.408594H2.40965C1.54112 0.408594 0.863184 1.11445 0.863184 1.95506V19.7171C0.863184 20.5577 1.54112 21.2635 2.40965 21.2635H13.6059C14.0072 21.2635 14.3193 20.9514 14.3193 20.5501C14.3193 20.1405 13.9742 19.8366 13.5814 19.8366Z" fill="#F3943D" stroke="#F3943D" stroke-width="0.3"/>
<path d="M17.8688 4.77109H4.36964C3.99592 4.77109 3.70615 5.06086 3.70615 5.43458C3.70615 5.8083 3.99592 6.09806 4.36964 6.09806H17.8688C18.2425 6.09806 18.5323 5.8083 18.5323 5.43458C18.5323 5.06086 18.2425 4.77109 17.8688 4.77109Z" fill="#F3943D" stroke="#F3943D" stroke-width="0.2"/>
<path d="M4.36964 11.5121H7.01557C7.38929 11.5121 7.67905 11.2224 7.67905 10.8486C7.67905 10.4749 7.38929 10.1852 7.01557 10.1852H4.36964C3.99592 10.1852 3.70615 10.4749 3.70615 10.8486C3.70615 11.2224 3.99592 11.5121 4.36964 11.5121Z" fill="#F3943D" stroke="#F3943D" stroke-width="0.2"/>
<path d="M18.5323 10.8486C18.5323 10.4749 18.2425 10.1852 17.8688 10.1852H10.7395C10.3658 10.1852 10.076 10.4749 10.076 10.8486C10.076 11.2224 10.3658 11.5121 10.7395 11.5121H17.8688C18.2425 11.5121 18.5323 11.2224 18.5323 10.8486Z" fill="#F3943D" stroke="#F3943D" stroke-width="0.2"/>
<path d="M4.36964 16.9496H11.9644C12.3382 16.9496 12.6279 16.6599 12.6279 16.2861C12.6279 15.9124 12.3382 15.6227 11.9644 15.6227H4.36964C3.99592 15.6227 3.70615 15.9124 3.70615 16.2861C3.70615 16.6599 3.99592 16.9496 4.36964 16.9496Z" fill="#F3943D" stroke="#F3943D" stroke-width="0.2"/>
<path d="M18.4815 13.273C15.9029 13.273 13.8001 15.3758 13.8001 17.9544C13.8001 20.5324 15.9022 22.6603 18.4815 22.6603C21.0605 22.6603 23.1629 20.5572 23.1629 17.9544C23.1629 15.3509 21.0598 13.273 18.4815 13.273ZM18.4815 21.3333C16.6258 21.3333 15.1271 19.8346 15.1271 17.9789C15.1271 16.1232 16.6258 14.6245 18.4815 14.6245C20.3372 14.6245 21.8359 16.1232 21.8359 17.9789C21.8359 19.8106 20.3368 21.3333 18.4815 21.3333Z" fill="#F3943D" stroke="#F3943D" stroke-width="0.2"/>
<path d="M20.0709 16.3622C19.8113 16.1027 19.405 16.1027 19.1455 16.3622L18.4812 17.0265L17.8169 16.3622C17.5574 16.1027 17.1511 16.1027 16.8915 16.3622C16.632 16.6218 16.632 17.0281 16.8915 17.2876L17.5558 17.9519L16.8915 18.6162C16.632 18.8757 16.632 19.282 16.8915 19.5416C17.0047 19.6547 17.176 19.7424 17.3542 19.7424C17.5206 19.7424 17.6986 19.6871 17.8207 19.5379L18.4812 18.8773L19.1455 19.5416C19.2586 19.6547 19.43 19.7424 19.6082 19.7424C19.7746 19.7424 19.9527 19.6871 20.0747 19.5377C20.3304 19.278 20.3291 18.8744 20.0709 18.6162L19.4066 17.9519L20.0689 17.2896C20.3343 17.0512 20.3272 16.6186 20.0709 16.3622Z" fill="#F3943D" stroke="#F3943D" stroke-width="0.2"/>
</svg>
