<svg width="76" height="76" viewBox="0 0 76 76" fill="none" xmlns="http://www.w3.org/2000/svg">
<g filter="url(#filter0_d_463_38)">
<circle cx="38" cy="34" r="28" fill="black"/>
</g>
<path d="M24.0913 32.888V40H22.7263V32.888H24.0913ZM24.3503 30.69C24.3503 30.816 24.3246 30.9373 24.2733 31.054C24.222 31.166 24.152 31.2663 24.0633 31.355C23.9793 31.439 23.879 31.5067 23.7623 31.558C23.6456 31.6047 23.5243 31.628 23.3983 31.628C23.2723 31.628 23.1533 31.6047 23.0413 31.558C22.9293 31.5067 22.829 31.439 22.7403 31.355C22.6563 31.2663 22.5886 31.166 22.5373 31.054C22.4906 30.9373 22.4673 30.816 22.4673 30.69C22.4673 30.5593 22.4906 30.438 22.5373 30.326C22.5886 30.2093 22.6563 30.109 22.7403 30.025C22.829 29.9363 22.9293 29.8687 23.0413 29.822C23.1533 29.7707 23.2723 29.745 23.3983 29.745C23.5243 29.745 23.6456 29.7707 23.7623 29.822C23.879 29.8687 23.9793 29.9363 24.0633 30.025C24.152 30.109 24.222 30.2093 24.2733 30.326C24.3246 30.438 24.3503 30.5593 24.3503 30.69ZM35.3092 34.974C35.3092 35.7253 35.1879 36.409 34.9452 37.025C34.7072 37.641 34.3689 38.1707 33.9302 38.614C33.4916 39.0527 32.9666 39.3933 32.3552 39.636C31.7439 39.8787 31.0649 40 30.3182 40H26.5382V29.948H30.3182C31.0649 29.948 31.7439 30.0693 32.3552 30.312C32.9666 30.5547 33.4916 30.8977 33.9302 31.341C34.3689 31.7797 34.7072 32.3093 34.9452 32.93C35.1879 33.546 35.3092 34.2273 35.3092 34.974ZM33.7832 34.974C33.7832 34.3767 33.7016 33.8423 33.5382 33.371C33.3749 32.895 33.1416 32.4937 32.8382 32.167C32.5396 31.8357 32.1756 31.5837 31.7462 31.411C31.3216 31.2383 30.8456 31.152 30.3182 31.152H28.0362V38.796H30.3182C30.8456 38.796 31.3216 38.7097 31.7462 38.537C32.1756 38.3643 32.5396 38.1147 32.8382 37.788C33.1416 37.4567 33.3749 37.0553 33.5382 36.584C33.7016 36.1127 33.7832 35.576 33.7832 34.974ZM42.5562 36.255L41.0652 32.356C40.9578 32.09 40.8505 31.754 40.7432 31.348C40.6918 31.5487 40.6382 31.7353 40.5822 31.908C40.5308 32.0807 40.4795 32.2347 40.4282 32.37L38.9442 36.255H42.5562ZM45.5032 40H44.3552C44.2245 40 44.1172 39.9673 44.0332 39.902C43.9492 39.8367 43.8885 39.7527 43.8512 39.65L42.9622 37.319H38.5312L37.6422 39.65C37.6095 39.7387 37.5488 39.8203 37.4602 39.895C37.3715 39.965 37.2642 40 37.1382 40H35.9902L39.9942 29.948H41.4992L45.5032 40ZM50.1031 35.121C50.4811 35.121 50.8125 35.072 51.0971 34.974C51.3865 34.876 51.6268 34.7383 51.8181 34.561C52.0141 34.379 52.1611 34.1643 52.2591 33.917C52.3571 33.665 52.4061 33.3873 52.4061 33.084C52.4061 32.4727 52.2148 31.992 51.8321 31.642C51.4541 31.292 50.8778 31.117 50.1031 31.117H48.5491V35.121H50.1031ZM50.1031 29.948C50.7471 29.948 51.3071 30.0227 51.7831 30.172C52.2591 30.3213 52.6535 30.5337 52.9661 30.809C53.2788 31.0797 53.5098 31.4087 53.6591 31.796C53.8131 32.1833 53.8901 32.6127 53.8901 33.084C53.8901 33.5553 53.8085 33.9893 53.6451 34.386C53.4818 34.778 53.2415 35.1163 52.9241 35.401C52.6068 35.6857 52.2101 35.9073 51.7341 36.066C51.2628 36.22 50.7191 36.297 50.1031 36.297H48.5491V40H47.0581V29.948H50.1031Z" fill="white"/>
<defs>
<filter id="filter0_d_463_38" x="0" y="0" width="76" height="76" filterUnits="userSpaceOnUse" color-interpolation-filters="sRGB">
<feFlood flood-opacity="0" result="BackgroundImageFix"/>
<feColorMatrix in="SourceAlpha" type="matrix" values="0 0 0 0 0 0 0 0 0 0 0 0 0 0 0 0 0 0 127 0" result="hardAlpha"/>
<feOffset dy="4"/>
<feGaussianBlur stdDeviation="5"/>
<feComposite in2="hardAlpha" operator="out"/>
<feColorMatrix type="matrix" values="0 0 0 0 0 0 0 0 0 0 0 0 0 0 0 0 0 0 0.08 0"/>
<feBlend mode="normal" in2="BackgroundImageFix" result="effect1_dropShadow_463_38"/>
<feBlend mode="normal" in="SourceGraphic" in2="effect1_dropShadow_463_38" result="shape"/>
</filter>
</defs>
</svg>
