<svg width="22" height="22" viewBox="0 0 22 22" fill="none" xmlns="http://www.w3.org/2000/svg">
<path d="M11.3549 11.7735L9.0544 14.0635C8.96065 14.1564 8.88624 14.267 8.83545 14.3889C8.78467 14.5108 8.75853 14.6415 8.75853 14.7735C8.75853 14.9055 8.78467 15.0362 8.83545 15.158C8.88624 15.2799 8.96065 15.3905 9.0544 15.4835C9.14738 15.5772 9.25801 15.6516 9.3799 15.7024C9.50178 15.7531 9.63252 15.7793 9.76456 15.7793C9.89661 15.7793 10.0273 15.7531 10.1492 15.7024C10.2711 15.6516 10.3817 15.5772 10.4747 15.4835L14.4757 11.4835C14.5667 11.3884 14.6381 11.2762 14.6857 11.1535C14.7858 10.91 14.7858 10.6369 14.6857 10.3935C14.6381 10.2707 14.5667 10.1586 14.4757 10.0635L10.4747 6.06351C10.3815 5.97027 10.2708 5.89631 10.1489 5.84585C10.0271 5.79539 9.89645 5.76942 9.76456 5.76942C9.63267 5.76942 9.50207 5.79539 9.38022 5.84585C9.25837 5.89631 9.14766 5.97027 9.0544 6.06351C8.96114 6.15675 8.88716 6.26744 8.83669 6.38926C8.78621 6.51108 8.76024 6.64165 8.76024 6.77351C8.76024 6.90537 8.78621 7.03593 8.83669 7.15775C8.88716 7.27958 8.96114 7.39027 9.0544 7.4835L11.3549 9.77349H1.76269C1.49741 9.77349 1.24299 9.87885 1.05541 10.0664C0.867833 10.2539 0.762451 10.5083 0.762451 10.7735C0.762451 11.0387 0.867833 11.2931 1.05541 11.4806C1.24299 11.6681 1.49741 11.7735 1.76269 11.7735H11.3549ZM10.7648 0.773537C8.89545 0.765193 7.06117 1.28075 5.47002 2.26172C3.87887 3.24269 2.59454 4.64983 1.76269 6.32351C1.64331 6.5622 1.62367 6.83853 1.70808 7.0917C1.79249 7.34488 1.97404 7.55416 2.21279 7.6735C2.45154 7.79285 2.72794 7.81249 2.98117 7.7281C3.2344 7.64371 3.44373 7.4622 3.56311 7.2235C4.19545 5.94683 5.15732 4.86214 6.34931 4.08151C7.54131 3.30088 8.92019 2.85264 10.3435 2.78312C11.7667 2.71359 13.1827 3.0253 14.4452 3.68603C15.7076 4.34676 16.7707 5.33254 17.5245 6.5415C18.2783 7.75046 18.6955 9.13874 18.7331 10.5629C18.7706 11.987 18.4271 13.3953 17.738 14.6423C17.0488 15.8892 16.0392 16.9296 14.8133 17.6559C13.5874 18.3821 12.1898 18.768 10.7648 18.7734C9.27333 18.7799 7.81026 18.3658 6.5435 17.5787C5.27674 16.7916 4.25763 15.6633 3.60312 14.3235C3.48374 14.0848 3.27441 13.9033 3.02118 13.8189C2.76795 13.7345 2.49155 13.7541 2.2528 13.8735C2.01405 13.9928 1.8325 14.2021 1.74809 14.4553C1.66368 14.7084 1.68332 14.9848 1.8027 15.2235C2.59571 16.819 3.80069 18.1737 5.29299 19.1475C6.78529 20.1213 8.51072 20.6788 10.2908 20.7624C12.0709 20.846 13.841 20.4526 15.418 19.623C16.9951 18.7933 18.3217 17.5574 19.2609 16.0433C20.2 14.5291 20.7174 12.7916 20.7596 11.0105C20.8019 9.22936 20.3674 7.4693 19.5011 5.91234C18.6348 4.35539 17.3682 3.05809 15.8323 2.15464C14.2963 1.25118 12.5469 0.774374 10.7648 0.773537Z" fill="#F3943D" stroke="#F3943D" stroke-width="0.5"/>
</svg>
