<svg width="23" height="24" viewBox="0 0 23 24" fill="none" xmlns="http://www.w3.org/2000/svg">
<mask id="path-1-outside-1_231_132" maskUnits="userSpaceOnUse" x="-0.295898" y="0.0214844" width="24" height="24" fill="black">
<rect fill="white" x="-0.295898" y="0.0214844" width="24" height="24"/>
<path d="M11.7016 1.0215C11.2198 1.02147 10.9067 1.24476 10.5768 1.47646C10.2469 1.70816 9.92059 1.99338 9.60116 2.28149C9.28173 2.56963 8.97254 2.85705 8.70893 3.084C8.44529 3.31085 8.19584 3.47397 8.16424 3.48715C8.13271 3.5006 7.84492 3.56042 7.49822 3.58697C7.15132 3.61282 6.72722 3.62422 6.29762 3.64638C5.86803 3.66863 5.43213 3.69803 5.0351 3.7677C4.638 3.83713 4.26618 3.90221 3.9255 4.24289C3.58481 4.58356 3.51857 4.96175 3.44905 5.35881C3.37954 5.7559 3.34861 6.18919 3.32645 6.6188C3.3042 7.0484 3.29297 7.4738 3.26705 7.82067C3.24113 8.16754 3.17651 8.45507 3.16343 8.48668C3.15047 8.51828 2.99229 8.76528 2.76534 9.02884C2.53839 9.29246 2.24462 9.60292 1.95651 9.92234C1.66842 10.2418 1.38689 10.5693 1.15527 10.8992C0.923653 11.2292 0.704104 11.5422 0.704102 12.024C0.704097 12.5058 0.922345 12.8151 1.15401 13.145C1.38563 13.4749 1.6722 13.8063 1.9603 14.1257C2.24842 14.4451 2.53586 14.7543 2.76281 15.0179C2.98976 15.2815 3.1516 15.5259 3.16469 15.5576C3.17765 15.5893 3.23982 15.8818 3.26579 16.2286C3.29172 16.5755 3.30304 16.9984 3.3252 17.428C3.34745 17.8576 3.37951 18.2884 3.44904 18.6854C3.51854 19.0825 3.58482 19.4594 3.92549 19.8001C4.26616 20.1408 4.64054 20.2083 5.03762 20.2778C5.43471 20.3474 5.86675 20.3782 6.29635 20.4004C6.72594 20.4224 7.1526 20.4326 7.49947 20.4585C7.84639 20.4846 8.13261 20.5453 8.16423 20.5584C8.19614 20.5725 8.44409 20.7347 8.70765 20.9615C8.97127 21.1885 9.28045 21.4772 9.59989 21.7653C9.91933 22.0534 10.2481 22.34 10.5781 22.5716C10.908 22.8032 11.2198 23.0215 11.7016 23.0215C12.1834 23.0215 12.4977 22.8033 12.8276 22.5716C13.1575 22.3399 13.4838 22.0547 13.8032 21.7665C14.1227 21.4784 14.4319 21.1859 14.6955 20.959C14.9591 20.7321 15.2047 20.5752 15.2364 20.5622C15.2679 20.5487 15.5595 20.4876 15.9062 20.4611C16.2531 20.4352 16.6759 20.4186 17.1055 20.3966C17.5351 20.3744 17.9723 20.345 18.3693 20.2753C18.7664 20.2059 19.137 20.1408 19.4776 19.8001C19.8183 19.4594 19.8871 19.0851 19.9566 18.688C20.0261 18.2909 20.0558 17.8538 20.0779 17.4242C20.1002 16.9946 20.1114 16.5743 20.1373 16.2274C20.1633 15.8805 20.2266 15.5879 20.2397 15.5563C20.2527 15.5247 20.4108 15.2777 20.6378 15.0141C20.8648 14.7505 21.1598 14.4439 21.4479 14.1244C21.736 13.8049 22.0188 13.4787 22.2504 13.1488C22.482 12.8189 22.7003 12.5058 22.7003 12.024C22.7003 11.5422 22.4821 11.2279 22.2504 10.898C22.0188 10.568 21.7335 10.2418 21.4454 9.92235C21.1573 9.60294 20.8686 9.29374 20.6416 9.03012C20.4147 8.76652 20.2515 8.51706 20.2385 8.48543C20.2255 8.45373 20.1658 8.16628 20.1399 7.81941C20.1139 7.47253 20.0976 7.04967 20.0754 6.62008C20.0532 6.19046 20.0236 5.75464 19.9541 5.35755C19.8846 4.96048 19.8183 4.58486 19.4777 4.24416C19.137 3.90348 18.7639 3.83978 18.3668 3.77024C17.9697 3.70069 17.5377 3.66982 17.1081 3.64764C16.6785 3.62563 16.2505 3.61037 15.9037 3.58445C15.5568 3.5584 15.2718 3.49898 15.2402 3.48587C15.2083 3.47168 14.9603 3.30832 14.6968 3.08146C14.4331 2.85451 14.1227 2.56579 13.8033 2.27769C13.4838 1.98958 13.1563 1.70301 12.8263 1.47139C12.4964 1.23977 12.1834 1.0215 11.7016 1.0215ZM11.704 2.32825C11.749 2.35002 11.9037 2.40666 12.0819 2.53173C12.3273 2.70397 12.6285 2.96558 12.9349 3.24197C13.2414 3.51837 13.5563 3.80972 13.8525 4.0647C14.1486 4.31966 14.3994 4.5384 14.7447 4.68143C15.0899 4.82437 15.4204 4.84567 15.8101 4.87477C16.1997 4.9038 16.6276 4.92051 17.0397 4.94176C17.4518 4.96303 17.849 4.98989 18.1443 5.04159C18.3598 5.07937 18.5104 5.15105 18.5575 5.16797C18.5725 5.21429 18.6411 5.36445 18.6789 5.57997C18.7306 5.87525 18.765 6.27112 18.7863 6.68325C18.8075 7.09536 18.8203 7.52324 18.8495 7.91292C18.8786 8.30261 18.8986 8.63809 19.0416 8.98334C19.1846 9.32862 19.4059 9.57564 19.6608 9.87179C19.9158 10.1679 20.2084 10.4816 20.4848 10.788C20.7612 11.0945 21.0216 11.3957 21.1938 11.6411C21.3195 11.8202 21.3755 11.9778 21.3973 12.0228C21.3748 12.0663 21.3163 12.2245 21.19 12.4044C21.0178 12.6498 20.7599 12.9497 20.4835 13.2562C20.2072 13.5627 19.9158 13.8776 19.6608 14.1737C19.4059 14.4699 19.1871 14.7156 19.0441 15.0609C18.9011 15.4062 18.8798 15.7416 18.8507 16.1313C18.8216 16.521 18.8063 16.9489 18.785 17.361C18.7638 17.7731 18.7318 18.1715 18.6801 18.4668C18.6424 18.6822 18.5719 18.832 18.5563 18.8788C18.5086 18.8942 18.3572 18.9636 18.1418 19.0014C17.8465 19.0532 17.4531 19.0825 17.041 19.1038C16.6289 19.125 16.1973 19.1379 15.8076 19.167C15.4179 19.1962 15.0874 19.221 14.7422 19.3641C14.3969 19.507 14.1449 19.7234 13.8487 19.9783C13.5526 20.2334 13.244 20.5297 12.9375 20.8061C12.631 21.0824 12.3285 21.3378 12.0832 21.51C11.9041 21.6358 11.7474 21.6954 11.7028 21.7185C11.6584 21.6958 11.5015 21.637 11.3224 21.5113C11.077 21.339 10.777 21.0812 10.4706 20.8048C10.1641 20.5284 9.84798 20.2333 9.55183 19.9783C9.25569 19.7233 9.00612 19.5096 8.66086 19.3666C8.31561 19.2237 7.98265 19.1961 7.59296 19.167C7.20329 19.1379 6.77795 19.1276 6.36582 19.1063C5.9537 19.085 5.55529 19.0531 5.26001 19.0014C5.04455 18.9636 4.89352 18.8944 4.84675 18.8788C4.83134 18.8312 4.76189 18.6785 4.72415 18.463C4.67245 18.1677 4.63799 17.7719 4.61672 17.3597C4.59544 16.9476 4.58392 16.5198 4.5548 16.1301C4.52567 15.7404 4.50569 15.4087 4.3627 15.0634C4.21968 14.7182 3.99714 14.4674 3.74218 14.1712C3.48722 13.8751 3.19458 13.5614 2.91819 13.255C2.6418 12.9485 2.38271 12.6473 2.21047 12.4019C2.08486 12.223 2.02849 12.0678 2.007 12.024C2.02852 11.9799 2.08482 11.8238 2.21047 11.6449C2.38269 11.3995 2.64306 11.0932 2.91945 10.7868C3.19583 10.4803 3.48848 10.1705 3.74344 9.87433C3.99839 9.57815 4.21715 9.32736 4.36017 8.9821C4.50316 8.63683 4.52441 8.30641 4.55352 7.91673C4.58262 7.52703 4.59925 7.0992 4.6205 6.68707C4.64178 6.27493 4.67242 5.87652 4.72412 5.58125C4.76185 5.36575 4.83239 5.21476 4.84796 5.168C4.89524 5.15137 5.04698 5.07939 5.26249 5.04161C5.55775 4.98984 5.94986 4.96054 6.36198 4.93924C6.77409 4.91796 7.20699 4.9051 7.5967 4.87604C7.98637 4.84682 8.31552 4.8218 8.66081 4.67891C9.0061 4.53601 9.25815 4.31962 9.5543 4.0647C9.85043 3.80965 10.1603 3.51838 10.4668 3.24198C10.7732 2.96567 11.0745 2.70523 11.3198 2.53299C11.5009 2.4058 11.6612 2.34948 11.704 2.32825ZM8.7733 6.7692C8.18063 6.78241 7.593 7.01305 7.14428 7.46176C6.21789 8.38814 6.21789 9.91347 7.14428 10.8399C8.07066 11.7662 9.59094 11.7624 10.5173 10.8359C11.4437 9.90956 11.4437 8.39181 10.5173 7.46543C10.0397 6.98776 9.40421 6.75514 8.7733 6.7692ZM15.0783 8.00139C14.9931 8.0014 14.9086 8.01827 14.8299 8.05102C14.7512 8.08377 14.6797 8.13175 14.6196 8.19222L7.87095 14.937C7.8105 14.9972 7.76254 15.0687 7.7298 15.1474C7.69707 15.2261 7.68022 15.3105 7.68022 15.3958C7.68022 15.4811 7.69707 15.5655 7.7298 15.6442C7.76254 15.7229 7.8105 15.7944 7.87095 15.8546C7.99219 15.9751 8.15621 16.0428 8.32718 16.0428C8.49815 16.0428 8.66217 15.9751 8.78341 15.8546L15.532 9.10467C15.6526 8.98343 15.7202 8.81941 15.7202 8.64845C15.7202 8.47748 15.6526 8.31346 15.532 8.19222C15.4118 8.07133 15.2488 8.00275 15.0783 8.00139ZM8.83143 8.05446C9.10935 8.05531 9.38642 8.16461 9.60234 8.38052C10.0342 8.81235 10.0342 9.48924 9.60234 9.92107C9.17051 10.3529 8.4911 10.3554 8.05926 9.92352C7.62742 9.49168 7.62742 8.80848 8.05926 8.37664C8.27518 8.16072 8.55351 8.05362 8.83143 8.05446ZM14.5741 12.5118C13.963 12.5118 13.3526 12.7437 12.8894 13.2069C11.9631 14.1333 11.9593 15.6548 12.8855 16.5812C13.8119 17.5076 15.336 17.5076 16.2624 16.5812C17.1888 15.6548 17.1862 14.1333 16.2599 13.2069C15.7967 12.7437 15.1852 12.5118 14.5741 12.5118ZM14.5728 13.7971C14.8507 13.798 15.1278 13.906 15.3437 14.1219C15.7756 14.5537 15.7794 15.2344 15.3474 15.6662C14.9156 16.0981 14.2324 16.0981 13.8005 15.6662C13.3687 15.2344 13.3687 14.5512 13.8005 14.1194C14.0164 13.9035 14.2949 13.7963 14.5728 13.7971Z"/>
</mask>
<path d="M11.7016 1.0215C11.2198 1.02147 10.9067 1.24476 10.5768 1.47646C10.2469 1.70816 9.92059 1.99338 9.60116 2.28149C9.28173 2.56963 8.97254 2.85705 8.70893 3.084C8.44529 3.31085 8.19584 3.47397 8.16424 3.48715C8.13271 3.5006 7.84492 3.56042 7.49822 3.58697C7.15132 3.61282 6.72722 3.62422 6.29762 3.64638C5.86803 3.66863 5.43213 3.69803 5.0351 3.7677C4.638 3.83713 4.26618 3.90221 3.9255 4.24289C3.58481 4.58356 3.51857 4.96175 3.44905 5.35881C3.37954 5.7559 3.34861 6.18919 3.32645 6.6188C3.3042 7.0484 3.29297 7.4738 3.26705 7.82067C3.24113 8.16754 3.17651 8.45507 3.16343 8.48668C3.15047 8.51828 2.99229 8.76528 2.76534 9.02884C2.53839 9.29246 2.24462 9.60292 1.95651 9.92234C1.66842 10.2418 1.38689 10.5693 1.15527 10.8992C0.923653 11.2292 0.704104 11.5422 0.704102 12.024C0.704097 12.5058 0.922345 12.8151 1.15401 13.145C1.38563 13.4749 1.6722 13.8063 1.9603 14.1257C2.24842 14.4451 2.53586 14.7543 2.76281 15.0179C2.98976 15.2815 3.1516 15.5259 3.16469 15.5576C3.17765 15.5893 3.23982 15.8818 3.26579 16.2286C3.29172 16.5755 3.30304 16.9984 3.3252 17.428C3.34745 17.8576 3.37951 18.2884 3.44904 18.6854C3.51854 19.0825 3.58482 19.4594 3.92549 19.8001C4.26616 20.1408 4.64054 20.2083 5.03762 20.2778C5.43471 20.3474 5.86675 20.3782 6.29635 20.4004C6.72594 20.4224 7.1526 20.4326 7.49947 20.4585C7.84639 20.4846 8.13261 20.5453 8.16423 20.5584C8.19614 20.5725 8.44409 20.7347 8.70765 20.9615C8.97127 21.1885 9.28045 21.4772 9.59989 21.7653C9.91933 22.0534 10.2481 22.34 10.5781 22.5716C10.908 22.8032 11.2198 23.0215 11.7016 23.0215C12.1834 23.0215 12.4977 22.8033 12.8276 22.5716C13.1575 22.3399 13.4838 22.0547 13.8032 21.7665C14.1227 21.4784 14.4319 21.1859 14.6955 20.959C14.9591 20.7321 15.2047 20.5752 15.2364 20.5622C15.2679 20.5487 15.5595 20.4876 15.9062 20.4611C16.2531 20.4352 16.6759 20.4186 17.1055 20.3966C17.5351 20.3744 17.9723 20.345 18.3693 20.2753C18.7664 20.2059 19.137 20.1408 19.4776 19.8001C19.8183 19.4594 19.8871 19.0851 19.9566 18.688C20.0261 18.2909 20.0558 17.8538 20.0779 17.4242C20.1002 16.9946 20.1114 16.5743 20.1373 16.2274C20.1633 15.8805 20.2266 15.5879 20.2397 15.5563C20.2527 15.5247 20.4108 15.2777 20.6378 15.0141C20.8648 14.7505 21.1598 14.4439 21.4479 14.1244C21.736 13.8049 22.0188 13.4787 22.2504 13.1488C22.482 12.8189 22.7003 12.5058 22.7003 12.024C22.7003 11.5422 22.4821 11.2279 22.2504 10.898C22.0188 10.568 21.7335 10.2418 21.4454 9.92235C21.1573 9.60294 20.8686 9.29374 20.6416 9.03012C20.4147 8.76652 20.2515 8.51706 20.2385 8.48543C20.2255 8.45373 20.1658 8.16628 20.1399 7.81941C20.1139 7.47253 20.0976 7.04967 20.0754 6.62008C20.0532 6.19046 20.0236 5.75464 19.9541 5.35755C19.8846 4.96048 19.8183 4.58486 19.4777 4.24416C19.137 3.90348 18.7639 3.83978 18.3668 3.77024C17.9697 3.70069 17.5377 3.66982 17.1081 3.64764C16.6785 3.62563 16.2505 3.61037 15.9037 3.58445C15.5568 3.5584 15.2718 3.49898 15.2402 3.48587C15.2083 3.47168 14.9603 3.30832 14.6968 3.08146C14.4331 2.85451 14.1227 2.56579 13.8033 2.27769C13.4838 1.98958 13.1563 1.70301 12.8263 1.47139C12.4964 1.23977 12.1834 1.0215 11.7016 1.0215ZM11.704 2.32825C11.749 2.35002 11.9037 2.40666 12.0819 2.53173C12.3273 2.70397 12.6285 2.96558 12.9349 3.24197C13.2414 3.51837 13.5563 3.80972 13.8525 4.0647C14.1486 4.31966 14.3994 4.5384 14.7447 4.68143C15.0899 4.82437 15.4204 4.84567 15.8101 4.87477C16.1997 4.9038 16.6276 4.92051 17.0397 4.94176C17.4518 4.96303 17.849 4.98989 18.1443 5.04159C18.3598 5.07937 18.5104 5.15105 18.5575 5.16797C18.5725 5.21429 18.6411 5.36445 18.6789 5.57997C18.7306 5.87525 18.765 6.27112 18.7863 6.68325C18.8075 7.09536 18.8203 7.52324 18.8495 7.91292C18.8786 8.30261 18.8986 8.63809 19.0416 8.98334C19.1846 9.32862 19.4059 9.57564 19.6608 9.87179C19.9158 10.1679 20.2084 10.4816 20.4848 10.788C20.7612 11.0945 21.0216 11.3957 21.1938 11.6411C21.3195 11.8202 21.3755 11.9778 21.3973 12.0228C21.3748 12.0663 21.3163 12.2245 21.19 12.4044C21.0178 12.6498 20.7599 12.9497 20.4835 13.2562C20.2072 13.5627 19.9158 13.8776 19.6608 14.1737C19.4059 14.4699 19.1871 14.7156 19.0441 15.0609C18.9011 15.4062 18.8798 15.7416 18.8507 16.1313C18.8216 16.521 18.8063 16.9489 18.785 17.361C18.7638 17.7731 18.7318 18.1715 18.6801 18.4668C18.6424 18.6822 18.5719 18.832 18.5563 18.8788C18.5086 18.8942 18.3572 18.9636 18.1418 19.0014C17.8465 19.0532 17.4531 19.0825 17.041 19.1038C16.6289 19.125 16.1973 19.1379 15.8076 19.167C15.4179 19.1962 15.0874 19.221 14.7422 19.3641C14.3969 19.507 14.1449 19.7234 13.8487 19.9783C13.5526 20.2334 13.244 20.5297 12.9375 20.8061C12.631 21.0824 12.3285 21.3378 12.0832 21.51C11.9041 21.6358 11.7474 21.6954 11.7028 21.7185C11.6584 21.6958 11.5015 21.637 11.3224 21.5113C11.077 21.339 10.777 21.0812 10.4706 20.8048C10.1641 20.5284 9.84798 20.2333 9.55183 19.9783C9.25569 19.7233 9.00612 19.5096 8.66086 19.3666C8.31561 19.2237 7.98265 19.1961 7.59296 19.167C7.20329 19.1379 6.77795 19.1276 6.36582 19.1063C5.9537 19.085 5.55529 19.0531 5.26001 19.0014C5.04455 18.9636 4.89352 18.8944 4.84675 18.8788C4.83134 18.8312 4.76189 18.6785 4.72415 18.463C4.67245 18.1677 4.63799 17.7719 4.61672 17.3597C4.59544 16.9476 4.58392 16.5198 4.5548 16.1301C4.52567 15.7404 4.50569 15.4087 4.3627 15.0634C4.21968 14.7182 3.99714 14.4674 3.74218 14.1712C3.48722 13.8751 3.19458 13.5614 2.91819 13.255C2.6418 12.9485 2.38271 12.6473 2.21047 12.4019C2.08486 12.223 2.02849 12.0678 2.007 12.024C2.02852 11.9799 2.08482 11.8238 2.21047 11.6449C2.38269 11.3995 2.64306 11.0932 2.91945 10.7868C3.19583 10.4803 3.48848 10.1705 3.74344 9.87433C3.99839 9.57815 4.21715 9.32736 4.36017 8.9821C4.50316 8.63683 4.52441 8.30641 4.55352 7.91673C4.58262 7.52703 4.59925 7.0992 4.6205 6.68707C4.64178 6.27493 4.67242 5.87652 4.72412 5.58125C4.76185 5.36575 4.83239 5.21476 4.84796 5.168C4.89524 5.15137 5.04698 5.07939 5.26249 5.04161C5.55775 4.98984 5.94986 4.96054 6.36198 4.93924C6.77409 4.91796 7.20699 4.9051 7.5967 4.87604C7.98637 4.84682 8.31552 4.8218 8.66081 4.67891C9.0061 4.53601 9.25815 4.31962 9.5543 4.0647C9.85043 3.80965 10.1603 3.51838 10.4668 3.24198C10.7732 2.96567 11.0745 2.70523 11.3198 2.53299C11.5009 2.4058 11.6612 2.34948 11.704 2.32825ZM8.7733 6.7692C8.18063 6.78241 7.593 7.01305 7.14428 7.46176C6.21789 8.38814 6.21789 9.91347 7.14428 10.8399C8.07066 11.7662 9.59094 11.7624 10.5173 10.8359C11.4437 9.90956 11.4437 8.39181 10.5173 7.46543C10.0397 6.98776 9.40421 6.75514 8.7733 6.7692ZM15.0783 8.00139C14.9931 8.0014 14.9086 8.01827 14.8299 8.05102C14.7512 8.08377 14.6797 8.13175 14.6196 8.19222L7.87095 14.937C7.8105 14.9972 7.76254 15.0687 7.7298 15.1474C7.69707 15.2261 7.68022 15.3105 7.68022 15.3958C7.68022 15.4811 7.69707 15.5655 7.7298 15.6442C7.76254 15.7229 7.8105 15.7944 7.87095 15.8546C7.99219 15.9751 8.15621 16.0428 8.32718 16.0428C8.49815 16.0428 8.66217 15.9751 8.78341 15.8546L15.532 9.10467C15.6526 8.98343 15.7202 8.81941 15.7202 8.64845C15.7202 8.47748 15.6526 8.31346 15.532 8.19222C15.4118 8.07133 15.2488 8.00275 15.0783 8.00139ZM8.83143 8.05446C9.10935 8.05531 9.38642 8.16461 9.60234 8.38052C10.0342 8.81235 10.0342 9.48924 9.60234 9.92107C9.17051 10.3529 8.4911 10.3554 8.05926 9.92352C7.62742 9.49168 7.62742 8.80848 8.05926 8.37664C8.27518 8.16072 8.55351 8.05362 8.83143 8.05446ZM14.5741 12.5118C13.963 12.5118 13.3526 12.7437 12.8894 13.2069C11.9631 14.1333 11.9593 15.6548 12.8855 16.5812C13.8119 17.5076 15.336 17.5076 16.2624 16.5812C17.1888 15.6548 17.1862 14.1333 16.2599 13.2069C15.7967 12.7437 15.1852 12.5118 14.5741 12.5118ZM14.5728 13.7971C14.8507 13.798 15.1278 13.906 15.3437 14.1219C15.7756 14.5537 15.7794 15.2344 15.3474 15.6662C14.9156 16.0981 14.2324 16.0981 13.8005 15.6662C13.3687 15.2344 13.3687 14.5512 13.8005 14.1194C14.0164 13.9035 14.2949 13.7963 14.5728 13.7971Z" fill="#F3943D"/>
<path d="M11.7016 1.0215C11.2198 1.02147 10.9067 1.24476 10.5768 1.47646C10.2469 1.70816 9.92059 1.99338 9.60116 2.28149C9.28173 2.56963 8.97254 2.85705 8.70893 3.084C8.44529 3.31085 8.19584 3.47397 8.16424 3.48715C8.13271 3.5006 7.84492 3.56042 7.49822 3.58697C7.15132 3.61282 6.72722 3.62422 6.29762 3.64638C5.86803 3.66863 5.43213 3.69803 5.0351 3.7677C4.638 3.83713 4.26618 3.90221 3.9255 4.24289C3.58481 4.58356 3.51857 4.96175 3.44905 5.35881C3.37954 5.7559 3.34861 6.18919 3.32645 6.6188C3.3042 7.0484 3.29297 7.4738 3.26705 7.82067C3.24113 8.16754 3.17651 8.45507 3.16343 8.48668C3.15047 8.51828 2.99229 8.76528 2.76534 9.02884C2.53839 9.29246 2.24462 9.60292 1.95651 9.92234C1.66842 10.2418 1.38689 10.5693 1.15527 10.8992C0.923653 11.2292 0.704104 11.5422 0.704102 12.024C0.704097 12.5058 0.922345 12.8151 1.15401 13.145C1.38563 13.4749 1.6722 13.8063 1.9603 14.1257C2.24842 14.4451 2.53586 14.7543 2.76281 15.0179C2.98976 15.2815 3.1516 15.5259 3.16469 15.5576C3.17765 15.5893 3.23982 15.8818 3.26579 16.2286C3.29172 16.5755 3.30304 16.9984 3.3252 17.428C3.34745 17.8576 3.37951 18.2884 3.44904 18.6854C3.51854 19.0825 3.58482 19.4594 3.92549 19.8001C4.26616 20.1408 4.64054 20.2083 5.03762 20.2778C5.43471 20.3474 5.86675 20.3782 6.29635 20.4004C6.72594 20.4224 7.1526 20.4326 7.49947 20.4585C7.84639 20.4846 8.13261 20.5453 8.16423 20.5584C8.19614 20.5725 8.44409 20.7347 8.70765 20.9615C8.97127 21.1885 9.28045 21.4772 9.59989 21.7653C9.91933 22.0534 10.2481 22.34 10.5781 22.5716C10.908 22.8032 11.2198 23.0215 11.7016 23.0215C12.1834 23.0215 12.4977 22.8033 12.8276 22.5716C13.1575 22.3399 13.4838 22.0547 13.8032 21.7665C14.1227 21.4784 14.4319 21.1859 14.6955 20.959C14.9591 20.7321 15.2047 20.5752 15.2364 20.5622C15.2679 20.5487 15.5595 20.4876 15.9062 20.4611C16.2531 20.4352 16.6759 20.4186 17.1055 20.3966C17.5351 20.3744 17.9723 20.345 18.3693 20.2753C18.7664 20.2059 19.137 20.1408 19.4776 19.8001C19.8183 19.4594 19.8871 19.0851 19.9566 18.688C20.0261 18.2909 20.0558 17.8538 20.0779 17.4242C20.1002 16.9946 20.1114 16.5743 20.1373 16.2274C20.1633 15.8805 20.2266 15.5879 20.2397 15.5563C20.2527 15.5247 20.4108 15.2777 20.6378 15.0141C20.8648 14.7505 21.1598 14.4439 21.4479 14.1244C21.736 13.8049 22.0188 13.4787 22.2504 13.1488C22.482 12.8189 22.7003 12.5058 22.7003 12.024C22.7003 11.5422 22.4821 11.2279 22.2504 10.898C22.0188 10.568 21.7335 10.2418 21.4454 9.92235C21.1573 9.60294 20.8686 9.29374 20.6416 9.03012C20.4147 8.76652 20.2515 8.51706 20.2385 8.48543C20.2255 8.45373 20.1658 8.16628 20.1399 7.81941C20.1139 7.47253 20.0976 7.04967 20.0754 6.62008C20.0532 6.19046 20.0236 5.75464 19.9541 5.35755C19.8846 4.96048 19.8183 4.58486 19.4777 4.24416C19.137 3.90348 18.7639 3.83978 18.3668 3.77024C17.9697 3.70069 17.5377 3.66982 17.1081 3.64764C16.6785 3.62563 16.2505 3.61037 15.9037 3.58445C15.5568 3.5584 15.2718 3.49898 15.2402 3.48587C15.2083 3.47168 14.9603 3.30832 14.6968 3.08146C14.4331 2.85451 14.1227 2.56579 13.8033 2.27769C13.4838 1.98958 13.1563 1.70301 12.8263 1.47139C12.4964 1.23977 12.1834 1.0215 11.7016 1.0215ZM11.704 2.32825C11.749 2.35002 11.9037 2.40666 12.0819 2.53173C12.3273 2.70397 12.6285 2.96558 12.9349 3.24197C13.2414 3.51837 13.5563 3.80972 13.8525 4.0647C14.1486 4.31966 14.3994 4.5384 14.7447 4.68143C15.0899 4.82437 15.4204 4.84567 15.8101 4.87477C16.1997 4.9038 16.6276 4.92051 17.0397 4.94176C17.4518 4.96303 17.849 4.98989 18.1443 5.04159C18.3598 5.07937 18.5104 5.15105 18.5575 5.16797C18.5725 5.21429 18.6411 5.36445 18.6789 5.57997C18.7306 5.87525 18.765 6.27112 18.7863 6.68325C18.8075 7.09536 18.8203 7.52324 18.8495 7.91292C18.8786 8.30261 18.8986 8.63809 19.0416 8.98334C19.1846 9.32862 19.4059 9.57564 19.6608 9.87179C19.9158 10.1679 20.2084 10.4816 20.4848 10.788C20.7612 11.0945 21.0216 11.3957 21.1938 11.6411C21.3195 11.8202 21.3755 11.9778 21.3973 12.0228C21.3748 12.0663 21.3163 12.2245 21.19 12.4044C21.0178 12.6498 20.7599 12.9497 20.4835 13.2562C20.2072 13.5627 19.9158 13.8776 19.6608 14.1737C19.4059 14.4699 19.1871 14.7156 19.0441 15.0609C18.9011 15.4062 18.8798 15.7416 18.8507 16.1313C18.8216 16.521 18.8063 16.9489 18.785 17.361C18.7638 17.7731 18.7318 18.1715 18.6801 18.4668C18.6424 18.6822 18.5719 18.832 18.5563 18.8788C18.5086 18.8942 18.3572 18.9636 18.1418 19.0014C17.8465 19.0532 17.4531 19.0825 17.041 19.1038C16.6289 19.125 16.1973 19.1379 15.8076 19.167C15.4179 19.1962 15.0874 19.221 14.7422 19.3641C14.3969 19.507 14.1449 19.7234 13.8487 19.9783C13.5526 20.2334 13.244 20.5297 12.9375 20.8061C12.631 21.0824 12.3285 21.3378 12.0832 21.51C11.9041 21.6358 11.7474 21.6954 11.7028 21.7185C11.6584 21.6958 11.5015 21.637 11.3224 21.5113C11.077 21.339 10.777 21.0812 10.4706 20.8048C10.1641 20.5284 9.84798 20.2333 9.55183 19.9783C9.25569 19.7233 9.00612 19.5096 8.66086 19.3666C8.31561 19.2237 7.98265 19.1961 7.59296 19.167C7.20329 19.1379 6.77795 19.1276 6.36582 19.1063C5.9537 19.085 5.55529 19.0531 5.26001 19.0014C5.04455 18.9636 4.89352 18.8944 4.84675 18.8788C4.83134 18.8312 4.76189 18.6785 4.72415 18.463C4.67245 18.1677 4.63799 17.7719 4.61672 17.3597C4.59544 16.9476 4.58392 16.5198 4.5548 16.1301C4.52567 15.7404 4.50569 15.4087 4.3627 15.0634C4.21968 14.7182 3.99714 14.4674 3.74218 14.1712C3.48722 13.8751 3.19458 13.5614 2.91819 13.255C2.6418 12.9485 2.38271 12.6473 2.21047 12.4019C2.08486 12.223 2.02849 12.0678 2.007 12.024C2.02852 11.9799 2.08482 11.8238 2.21047 11.6449C2.38269 11.3995 2.64306 11.0932 2.91945 10.7868C3.19583 10.4803 3.48848 10.1705 3.74344 9.87433C3.99839 9.57815 4.21715 9.32736 4.36017 8.9821C4.50316 8.63683 4.52441 8.30641 4.55352 7.91673C4.58262 7.52703 4.59925 7.0992 4.6205 6.68707C4.64178 6.27493 4.67242 5.87652 4.72412 5.58125C4.76185 5.36575 4.83239 5.21476 4.84796 5.168C4.89524 5.15137 5.04698 5.07939 5.26249 5.04161C5.55775 4.98984 5.94986 4.96054 6.36198 4.93924C6.77409 4.91796 7.20699 4.9051 7.5967 4.87604C7.98637 4.84682 8.31552 4.8218 8.66081 4.67891C9.0061 4.53601 9.25815 4.31962 9.5543 4.0647C9.85043 3.80965 10.1603 3.51838 10.4668 3.24198C10.7732 2.96567 11.0745 2.70523 11.3198 2.53299C11.5009 2.4058 11.6612 2.34948 11.704 2.32825ZM8.7733 6.7692C8.18063 6.78241 7.593 7.01305 7.14428 7.46176C6.21789 8.38814 6.21789 9.91347 7.14428 10.8399C8.07066 11.7662 9.59094 11.7624 10.5173 10.8359C11.4437 9.90956 11.4437 8.39181 10.5173 7.46543C10.0397 6.98776 9.40421 6.75514 8.7733 6.7692ZM15.0783 8.00139C14.9931 8.0014 14.9086 8.01827 14.8299 8.05102C14.7512 8.08377 14.6797 8.13175 14.6196 8.19222L7.87095 14.937C7.8105 14.9972 7.76254 15.0687 7.7298 15.1474C7.69707 15.2261 7.68022 15.3105 7.68022 15.3958C7.68022 15.4811 7.69707 15.5655 7.7298 15.6442C7.76254 15.7229 7.8105 15.7944 7.87095 15.8546C7.99219 15.9751 8.15621 16.0428 8.32718 16.0428C8.49815 16.0428 8.66217 15.9751 8.78341 15.8546L15.532 9.10467C15.6526 8.98343 15.7202 8.81941 15.7202 8.64845C15.7202 8.47748 15.6526 8.31346 15.532 8.19222C15.4118 8.07133 15.2488 8.00275 15.0783 8.00139ZM8.83143 8.05446C9.10935 8.05531 9.38642 8.16461 9.60234 8.38052C10.0342 8.81235 10.0342 9.48924 9.60234 9.92107C9.17051 10.3529 8.4911 10.3554 8.05926 9.92352C7.62742 9.49168 7.62742 8.80848 8.05926 8.37664C8.27518 8.16072 8.55351 8.05362 8.83143 8.05446ZM14.5741 12.5118C13.963 12.5118 13.3526 12.7437 12.8894 13.2069C11.9631 14.1333 11.9593 15.6548 12.8855 16.5812C13.8119 17.5076 15.336 17.5076 16.2624 16.5812C17.1888 15.6548 17.1862 14.1333 16.2599 13.2069C15.7967 12.7437 15.1852 12.5118 14.5741 12.5118ZM14.5728 13.7971C14.8507 13.798 15.1278 13.906 15.3437 14.1219C15.7756 14.5537 15.7794 15.2344 15.3474 15.6662C14.9156 16.0981 14.2324 16.0981 13.8005 15.6662C13.3687 15.2344 13.3687 14.5512 13.8005 14.1194C14.0164 13.9035 14.2949 13.7963 14.5728 13.7971Z" stroke="#F3943D" stroke-width="0.4" mask="url(#path-1-outside-1_231_132)"/>
</svg>
