<svg width="24" height="23" viewBox="0 0 24 23" fill="none" xmlns="http://www.w3.org/2000/svg">
<path d="M18.9991 0.475H18.999L5.55588 0.475L5.55576 0.475C4.37732 0.475906 3.24785 0.945103 2.41458 1.77835C1.58125 2.61166 1.11304 3.74109 1.11123 4.91942V4.91965L1.11123 18.298L1.11123 18.2982C1.11304 19.4756 1.58126 20.606 2.41458 21.4393L2.41464 21.4394C3.24787 22.2717 4.37728 22.7409 5.55576 22.7418H5.55588H10.7292C11.1219 22.7418 11.4394 22.4243 11.4394 22.0317C11.4394 21.64 11.1221 21.3215 10.7292 21.3215H5.55603C3.88655 21.3199 2.53322 19.9673 2.53151 18.2979V4.91984C2.53318 3.25042 3.8866 1.89703 5.55603 1.89533H18.9988C20.6683 1.89699 22.0217 3.25041 22.0234 4.91985V11.3428C22.0234 11.7358 22.3411 12.0521 22.7335 12.0521C23.1251 12.0521 23.4436 11.7348 23.4436 11.3419V4.91882V4.91859C23.4418 3.74027 22.9735 2.6117 22.1403 1.7784C21.307 0.945128 20.1776 0.475904 18.9991 0.475Z" fill="#F3943D" stroke="#F3943D" stroke-width="0.3"/>
<path d="M10.2934 7.33163C10.1883 7.22661 10.0457 7.16797 9.8969 7.16797C9.74813 7.16797 9.60545 7.22661 9.50044 7.33163L7.40958 9.42688L6.48188 8.50266C6.26133 8.29699 5.91738 8.30312 5.70381 8.51666C5.49114 8.73021 5.48501 9.07417 5.69068 9.29473L7.01048 10.6154L7.00961 10.6145C7.22928 10.8333 7.58287 10.8333 7.80255 10.6145L10.2933 8.12285V8.12372C10.3984 8.0187 10.457 7.87603 10.457 7.72726C10.457 7.57935 10.3984 7.43665 10.2934 7.33163Z" fill="#F3943D"/>
<path d="M9.50036 13.0431L7.40687 15.1348L6.48178 14.2124C6.37851 14.1012 6.23409 14.0364 6.0818 14.0338C5.93039 14.0312 5.78337 14.0907 5.67571 14.1984C5.56893 14.3051 5.50942 14.4522 5.51205 14.6036C5.51467 14.7559 5.57944 14.9003 5.69059 15.0036L7.01039 16.3234H7.00951C7.11454 16.4284 7.2572 16.4879 7.40597 16.4879C7.55475 16.4879 7.69742 16.4284 7.80243 16.3234L10.2932 13.8326C10.491 13.6111 10.4805 13.2733 10.2696 13.0633C10.0595 12.8541 9.72179 12.8453 9.50036 13.0431Z" fill="#F3943D"/>
<path d="M18.4695 8.41406H12.9224C12.6135 8.41406 12.3623 8.66437 12.3623 8.97419C12.3623 9.28314 12.6135 9.53432 12.9224 9.53432H18.4695C18.7785 9.53432 19.0296 9.28314 19.0296 8.97419C19.0296 8.66437 18.7785 8.41406 18.4695 8.41406Z" fill="#F3943D"/>
<path d="M15.8535 14.6257C15.8535 15.7074 16.5056 16.6833 17.505 17.0981C18.5054 17.5121 19.6563 17.2828 20.4213 16.5179C21.1871 15.752 21.4155 14.6012 21.0015 13.6016C20.5876 12.6013 19.6117 11.9492 18.5291 11.9492C17.0527 11.9518 15.8553 13.1483 15.8537 14.6255L15.8535 14.6257ZM20.0852 14.6257C20.0852 15.255 19.7062 15.8221 19.1242 16.0628C18.5431 16.3035 17.8744 16.1704 17.4289 15.7258C16.9843 15.2804 16.8513 14.6117 17.092 14.0306C17.3327 13.4486 17.8998 13.0696 18.5291 13.0696C19.3885 13.0705 20.0843 13.7671 20.0852 14.6257Z" fill="#F3943D"/>
<path d="M20.1464 18.0469H16.9133C15.1751 18.0486 13.7669 19.4568 13.7651 21.1941C13.7669 21.9836 14.4058 22.6225 15.1952 22.6242H21.8634C22.6529 22.6233 23.2927 21.9836 23.2935 21.1941C23.2909 19.4569 21.8837 18.0487 20.1464 18.0469ZM21.8644 21.504H15.1953C15.0246 21.5031 14.8863 21.3657 14.8854 21.1942C14.8863 20.0757 15.7939 19.1681 16.9133 19.1672H20.1464C21.2649 19.169 22.1716 20.0757 22.1733 21.1942C22.1725 21.3648 22.0342 21.5022 21.8635 21.5031L21.8644 21.504Z" fill="#F3943D"/>
</svg>
