<svg width="49" height="49" viewBox="0 0 49 49" fill="none" xmlns="http://www.w3.org/2000/svg">
    <path d="m47.348 16.39-3.712-3.713a2.24 2.24 0 0 0-3.178 0L18.005 35.13 7.56 24.677a2.24 2.24 0 0 0-3.178 0L.66 28.4a2.252 2.252 0 0 0 0 3.188l15.75 15.76a2.24 2.24 0 0 0 3.178 0l27.75-27.77c.881-.89.881-2.315.01-3.187zm-30.403 9.937c.582.591 1.538.591 2.12 0l19.5-19.518a1.505 1.505 0 0 0 0-2.12L34.326.444a1.488 1.488 0 0 0-2.12 0L18.006 14.646 12.81 9.443a1.488 1.488 0 0 0-2.119 0L6.445 13.69a1.505 1.505 0 0 0 0 2.119l10.5 10.518z" fill="#F7941E"/>
</svg>
