<svg width="34" height="34" viewBox="0 0 34 34" fill="none" xmlns="http://www.w3.org/2000/svg">
<path d="M16.5706 32.8613C25.4071 32.8613 32.5706 25.6979 32.5706 16.8613C32.5706 8.02477 25.4071 0.861328 16.5706 0.861328C7.734 0.861328 0.570557 8.02477 0.570557 16.8613C0.570557 25.6979 7.734 32.8613 16.5706 32.8613Z" fill="white" stroke="#E8E8E8"/>
<path d="M15.361 9.49219H17.7801C18.1827 9.49219 18.506 9.80542 18.506 10.1954V15.1172H21.1583C21.6957 15.1172 21.9653 15.7472 21.5846 16.116L16.985 20.5754C16.8752 20.6812 16.7267 20.7406 16.5719 20.7406C16.4171 20.7406 16.2686 20.6812 16.1589 20.5754L11.5538 16.116C11.4693 16.0342 11.4118 15.9301 11.3884 15.8166C11.365 15.7032 11.3769 15.5856 11.4225 15.4787C11.4682 15.3718 11.5455 15.2804 11.6447 15.216C11.7439 15.1517 11.8606 15.1173 11.98 15.1172H14.6351V10.1954C14.6351 9.80542 14.9584 9.49219 15.361 9.49219ZM24.3125 20.5075V23.7898C24.3126 23.8822 24.2939 23.9736 24.2575 24.059C24.221 24.1443 24.1675 24.2218 24.1001 24.287C24.0326 24.3523 23.9526 24.404 23.8644 24.4392C23.7763 24.4744 23.6819 24.4924 23.5866 24.4922H9.55454C9.45914 24.4924 9.36464 24.4744 9.27645 24.4391C9.18827 24.4039 9.10815 24.3521 9.0407 24.2867C8.97324 24.2214 8.91978 24.1438 8.88338 24.0583C8.84699 23.9729 8.82838 23.8814 8.82862 23.7889V20.5075C8.82862 20.1184 9.15196 19.8051 9.55454 19.8051H13.9902L15.473 21.2407C15.617 21.3806 15.7881 21.4915 15.9764 21.5672C16.1647 21.6429 16.3666 21.6819 16.5705 21.6819C16.7745 21.6819 16.9764 21.6429 17.1647 21.5672C17.353 21.4915 17.5241 21.3806 17.6681 21.2407L19.15 19.8051H23.5866C23.9891 19.8051 24.3125 20.1184 24.3125 20.5075ZM20.5627 23.0857C20.5622 22.9305 20.4983 22.7817 20.385 22.6719C20.2717 22.5622 20.1181 22.5003 19.9579 22.4998C19.7976 22.5003 19.6441 22.5622 19.5308 22.6719C19.4174 22.7817 19.3536 22.9305 19.3531 23.0857C19.3531 23.4078 19.6254 23.6716 19.9579 23.6716C20.1181 23.6711 20.2717 23.6093 20.385 23.4995C20.4983 23.3897 20.5622 23.241 20.5627 23.0857ZM22.4981 23.0857C22.4977 22.9305 22.4338 22.7817 22.3205 22.6719C22.2072 22.5622 22.0536 22.5003 21.8934 22.4998C21.7331 22.5003 21.5796 22.5622 21.4662 22.6719C21.3529 22.7817 21.2891 22.9305 21.2886 23.0857C21.2886 23.4078 21.5609 23.6716 21.8934 23.6716C22.0536 23.6711 22.2072 23.6093 22.3205 23.4995C22.4338 23.3897 22.4977 23.241 22.4981 23.0857Z" fill="#F7941E"/>
</svg>
