<svg width="15" height="16" viewBox="0 0 15 16" fill="none" xmlns="http://www.w3.org/2000/svg">
    <g clip-path="url(#ive8iav2ja)">
        <path d="m14.795 13.834-2.921-3.115a.68.68 0 0 0-.498-.219h-.478a6.747 6.747 0 0 0 1.29-4c0-3.59-2.728-6.5-6.094-6.5S0 2.91 0 6.5 2.728 13 6.094 13a5.827 5.827 0 0 0 3.75-1.375v.51c0 .2.073.39.205.53l2.92 3.116a.67.67 0 0 0 .994 0l.829-.884a.79.79 0 0 0 .003-1.063zM6.094 10.5c-2.072 0-3.75-1.787-3.75-4 0-2.21 1.676-4 3.75-4 2.071 0 3.75 1.787 3.75 4 0 2.21-1.676 4-3.75 4z" fill="#E77925"/>
    </g>
    <defs>
        <clipPath id="ive8iav2ja">
            <path fill="#fff" d="M0 0h15v16H0z"/>
        </clipPath>
    </defs>
</svg>
