<svg width="22" height="23" viewBox="0 0 22 23" fill="none" xmlns="http://www.w3.org/2000/svg">
<path d="M16.6175 16.2985C16.3222 16.2985 16.0882 16.5326 16.0882 16.8278V21.6088H1.97437V1.426H14.8787L16.2382 2.7855C16.4485 2.9958 16.7787 2.9958 16.989 2.7855C17.1993 2.5752 17.1993 2.24504 16.989 2.03473L15.4718 0.517493C15.3784 0.424174 15.2427 0.359766 15.1002 0.359766H1.44498C1.14973 0.359766 0.915674 0.59382 0.915674 0.889076V22.1305C0.915674 22.4257 1.14973 22.6598 1.44498 22.6598H16.6174C16.9127 22.6598 17.1467 22.4257 17.1467 22.1305V16.8201C17.1467 16.5304 16.9107 16.2985 16.6175 16.2985Z" fill="#F3943D" stroke="#F3943D" stroke-width="0.3"/>
<path d="M14.7711 4.68952V3.17228C14.7711 2.93225 14.5818 2.74297 14.3418 2.74297H3.72111C3.48108 2.74297 3.2918 2.93225 3.2918 3.17228V4.68952C3.2918 4.92955 3.48108 5.11883 3.72111 5.11883H14.3418C14.5818 5.11883 14.7711 4.92955 14.7711 4.68952ZM13.9125 4.26021H4.15042V3.60159H13.9125V4.26021Z" fill="#F3943D" stroke="#F3943D" stroke-width="0.1"/>
<path d="M13.583 6.53594H2.96232C2.72229 6.53594 2.53301 6.72522 2.53301 6.96525C2.53301 7.20528 2.72229 7.39456 2.96232 7.39456H13.583C13.823 7.39456 14.0123 7.20528 14.0123 6.96525C14.0123 6.72522 13.823 6.53594 13.583 6.53594Z" fill="#F3943D" stroke="#F3943D" stroke-width="0.1"/>
<path d="M13.583 8.05547H2.96232C2.72229 8.05547 2.53301 8.24475 2.53301 8.48478C2.53301 8.72481 2.72229 8.91409 2.96232 8.91409H13.583C13.823 8.91409 14.0123 8.72481 14.0123 8.48478C14.0123 8.24475 13.823 8.05547 13.583 8.05547Z" fill="#F3943D" stroke="#F3943D" stroke-width="0.1"/>
<path d="M14.0123 10.0004C14.0123 9.76038 13.823 9.57109 13.583 9.57109H2.96232C2.72229 9.57109 2.53301 9.76038 2.53301 10.0004C2.53301 10.2404 2.72229 10.4297 2.96232 10.4297H13.583C13.823 10.4297 14.0123 10.2404 14.0123 10.0004Z" fill="#F3943D" stroke="#F3943D" stroke-width="0.1"/>
<path d="M2.96232 11.9473H12.0658C12.3058 11.9473 12.4951 11.758 12.4951 11.518C12.4951 11.278 12.3058 11.0887 12.0658 11.0887H2.96232C2.72229 11.0887 2.53301 11.278 2.53301 11.518C2.53301 11.7587 2.73053 11.9473 2.96232 11.9473Z" fill="#F3943D" stroke="#F3943D" stroke-width="0.1"/>
<path d="M2.96232 13.4649H12.0658C12.3058 13.4649 12.4951 13.2756 12.4951 13.0356C12.4951 12.7955 12.3058 12.6062 12.0658 12.6062H2.96232C2.72229 12.6062 2.53301 12.7955 2.53301 13.0356C2.53301 13.2762 2.73053 13.4649 2.96232 13.4649Z" fill="#F3943D" stroke="#F3943D" stroke-width="0.1"/>
<path d="M2.96232 14.9805H12.0658C12.3058 14.9805 12.4951 14.7912 12.4951 14.5512C12.4951 14.3112 12.3058 14.1219 12.0658 14.1219H2.96232C2.72229 14.1219 2.53301 14.3112 2.53301 14.5512C2.53301 14.7919 2.73053 14.9805 2.96232 14.9805Z" fill="#F3943D" stroke="#F3943D" stroke-width="0.1"/>
<path d="M2.96232 16.4961H12.0658C12.3058 16.4961 12.4951 16.3068 12.4951 16.0668C12.4951 15.8268 12.3058 15.6375 12.0658 15.6375H2.96232C2.72229 15.6375 2.53301 15.8268 2.53301 16.0668C2.53301 16.3075 2.73053 16.4961 2.96232 16.4961Z" fill="#F3943D" stroke="#F3943D" stroke-width="0.1"/>
<path d="M2.96232 18.0157H9.03128C9.27131 18.0157 9.46059 17.8264 9.46059 17.5863C9.46059 17.3463 9.27131 17.157 9.03128 17.157H2.96232C2.72229 17.157 2.53301 17.3463 2.53301 17.5863C2.53301 17.827 2.73053 18.0157 2.96232 18.0157Z" fill="#F3943D" stroke="#F3943D" stroke-width="0.1"/>
<path d="M11.7321 18.1712L11.6876 18.1483C11.6171 18.2855 11.5035 18.4624 11.3783 18.6091C11.3157 18.6823 11.2511 18.7469 11.1884 18.7951C11.1265 18.8427 11.0701 18.8715 11.0221 18.8799C11.0197 18.8799 11.0175 18.88 11.0152 18.8801C11.0032 18.8807 10.992 18.8812 10.9729 18.8754C10.9484 18.8679 10.9097 18.8484 10.8571 18.7958C10.5256 18.4644 10.1825 18.4306 9.94863 18.4709C9.58203 18.5307 9.28021 18.7902 9.06145 19.0493C8.84163 19.3096 8.69926 19.5771 8.65326 19.6653L8.65322 19.6654C8.54144 19.8803 8.62809 20.1377 8.84143 20.2487L8.84142 20.2487L8.84286 20.2494C9.05618 20.3518 9.3138 20.2672 9.4175 20.0598L9.37278 20.0374M11.7321 18.1712L11.6873 18.1488C11.7738 17.9759 11.9793 17.8823 12.168 17.9252L12.17 17.9257L12.17 17.9257C12.3577 17.9769 12.4952 18.1477 12.4952 18.3457C12.4952 18.7666 12.5503 19.2094 12.6204 19.4652L14.0409 18.0448C14.2121 17.8735 14.4789 17.8735 14.6502 18.0448C14.8214 18.216 14.8214 18.4829 14.6502 18.6541L13.133 20.1714C12.92 20.3843 12.7181 20.4515 12.5514 20.4515C12.4522 20.4515 12.3697 20.4268 12.312 20.4021C12.1422 20.3316 12.0154 20.1902 11.9211 20.0114C11.8382 19.8541 11.7788 19.6652 11.737 19.4626C11.5668 19.5988 11.3749 19.7024 11.1562 19.7377C10.9223 19.778 10.5792 19.7442 10.2478 19.4128C10.1952 19.3602 10.1565 19.3407 10.132 19.3332C10.1129 19.3274 10.1017 19.3279 10.0896 19.3285C10.0874 19.3286 10.0851 19.3287 10.0828 19.3287C10.0347 19.3371 9.97831 19.3659 9.91639 19.4135C9.85377 19.4617 9.78918 19.5263 9.72657 19.5995C9.60129 19.7462 9.48772 19.9231 9.41726 20.0602L9.37278 20.0374M11.7321 18.1712C11.8079 18.0195 11.99 17.936 12.1569 17.9739L8.69759 19.6884C8.78862 19.514 9.25896 18.634 9.9569 18.5202C10.1769 18.4822 10.5031 18.5126 10.8217 18.8312C10.9254 18.9348 10.9912 18.9315 11.0194 18.9301C11.0221 18.9299 11.0245 18.9298 11.0266 18.9298C11.2693 18.8919 11.5879 18.4519 11.7321 18.1712ZM9.37278 20.0374C9.28175 20.2195 9.05415 20.2953 8.8645 20.2043L11.1479 19.6884C10.9279 19.7264 10.6017 19.696 10.2831 19.3774C10.1795 19.2738 10.1136 19.2771 10.0855 19.2785C10.0827 19.2787 10.0803 19.2788 10.0783 19.2788C9.83553 19.3167 9.51692 19.7567 9.37278 20.0374Z" fill="#F3943D" stroke="#F3943D" stroke-width="0.1"/>
<path d="M15.6465 13.0267C15.692 13.0418 15.7375 13.0494 15.783 13.0494C15.9348 13.0494 16.0789 12.9584 16.1396 12.8067L18.2789 7.13219C18.3548 6.93495 18.2561 6.71494 18.0589 6.64667C17.8617 6.57081 17.6416 6.66943 17.5734 6.86667L15.4341 12.5412C15.3506 12.7308 15.4492 12.9508 15.6465 13.0267Z" fill="#F3943D"/>
<path d="M21.1389 4.56149L20.9037 4.47045L21.0403 4.11389C21.2223 3.6208 21.0479 3.08974 20.6382 2.79389L21.0555 1.6863C21.0934 1.59527 21.0858 1.48906 21.0479 1.39803C21.0099 1.30699 20.9265 1.23872 20.8355 1.20079L19.5686 0.722844C19.3713 0.646982 19.1513 0.745602 19.083 0.942844L18.6658 2.05043C18.4685 2.02767 18.2713 2.05802 18.0892 2.14146C17.8086 2.26284 17.5961 2.49043 17.4823 2.77871L13.4693 13.4144V13.422C13.4617 13.4448 13.4617 13.4675 13.4617 13.4903C13.4541 13.5131 13.4465 13.5358 13.4465 13.5586L13.53 17.6398C13.53 17.7916 13.6286 17.9357 13.7727 17.9888C13.8183 18.004 13.8638 18.0116 13.9093 18.0116C14.0155 18.0116 14.1141 17.9661 14.19 17.8902L16.9513 14.8785C16.9817 14.8406 17.0045 14.8027 17.0196 14.7647L17.0272 14.7571V14.7496L20.6382 5.17564L20.8734 5.26668C21.0024 5.3122 21.101 5.41082 21.1541 5.53221C21.1996 5.63841 21.2148 5.75979 21.1844 5.866C20.9113 6.20737 19.652 7.95979 19.3182 10.8576C19.2955 11.0624 19.4472 11.2521 19.652 11.2749H19.6975C19.8872 11.2749 20.0541 11.1307 20.0769 10.9411C20.4182 7.99762 21.8065 6.30583 21.8217 6.29078C21.852 6.26044 21.8748 6.2225 21.8824 6.18457C22.0038 5.86595 21.9886 5.52456 21.852 5.22111C21.7079 4.91009 21.4575 4.67491 21.1389 4.5611L21.1389 4.56149ZM19.652 1.56488L20.2058 1.77729L19.9402 2.49039L19.3865 2.27798L19.652 1.56488ZM14.2657 16.6841L14.2126 14.1048L16.0029 14.78L14.2657 16.6841ZM16.4429 14.1352L14.3112 13.331L17.2547 5.52488L19.3864 6.32901L16.4429 14.1352ZM19.6519 5.62356L17.5202 4.81942L17.7858 4.10632L19.9175 4.91045L19.6519 5.62356ZM20.3271 3.84839L20.1905 4.20495L18.0588 3.40081L18.1954 3.04425C18.2333 2.94563 18.3016 2.87735 18.3926 2.83183C18.4837 2.78632 18.5899 2.78632 18.6809 2.82425L20.0995 3.36288C20.2968 3.43116 20.3954 3.65114 20.3271 3.84839Z" fill="#F3943D"/>
</svg>
