<svg width="22" height="23" viewBox="0 0 22 23" fill="none" xmlns="http://www.w3.org/2000/svg">
<path d="M19.7421 8.48765L18.2726 7.01812C17.9237 6.66929 17.3597 6.66929 17.0146 7.01812L8.12686 15.9058L3.99287 11.7681C3.64404 11.4193 3.07998 11.4193 2.73486 11.7681L1.26162 13.2414C0.912793 13.5902 0.912793 14.1542 1.26162 14.5031L7.496 20.7412C7.84482 21.09 8.40889 21.09 8.754 20.7412L19.7384 9.74937C20.0872 9.39683 20.0872 8.83276 19.7421 8.48765ZM7.70752 12.4212C7.9376 12.655 8.31611 12.655 8.54619 12.4212L16.2649 4.69507C16.495 4.46128 16.495 4.08647 16.2649 3.8564L14.5876 2.17534C14.3575 1.94155 13.979 1.94155 13.7489 2.17534L8.12686 7.79741L6.071 5.73784C5.84092 5.50405 5.4624 5.50405 5.23232 5.73784L3.55127 7.4189C3.32119 7.65269 3.32119 8.02749 3.55127 8.25757L7.70752 12.4212Z" fill="#f3943d"/>
</svg>
