<svg width="18" height="20" viewBox="0 0 18 20" fill="none" xmlns="http://www.w3.org/2000/svg">
<path d="M17.5179 6.25C17.783 6.25 18 6.03906 18 5.78125V4.21875C18 3.96094 17.783 3.75 17.5179 3.75H16.7143V1.875C16.7143 0.839844 15.8504 0 14.7857 0H1.92857C0.863839 0 0 0.839844 0 1.875V18.125C0 19.1602 0.863839 20 1.92857 20H14.7857C15.8504 20 16.7143 19.1602 16.7143 18.125V16.25H17.5179C17.783 16.25 18 16.0391 18 15.7812V14.2188C18 13.9609 17.783 13.75 17.5179 13.75H16.7143V11.25H17.5179C17.783 11.25 18 11.0391 18 10.7812V9.21875C18 8.96094 17.783 8.75 17.5179 8.75H16.7143V6.25H17.5179ZM8.35714 5C9.77545 5 10.9286 6.12109 10.9286 7.5C10.9286 8.87891 9.77545 10 8.35714 10C6.93884 10 5.78571 8.87891 5.78571 7.5C5.78571 6.12109 6.93884 5 8.35714 5ZM12.8571 14.25C12.8571 14.6641 12.4554 15 11.9571 15H4.75714C4.25893 15 3.85714 14.6641 3.85714 14.25V13.5C3.85714 12.2578 5.06652 11.25 6.55714 11.25H6.75804C7.25223 11.4492 7.79062 11.5625 8.35714 11.5625C8.92366 11.5625 9.46607 11.4492 9.95625 11.25H10.1571C11.6478 11.25 12.8571 12.2578 12.8571 13.5V14.25Z" fill="#f3943d"/>
</svg>
